<?xml version="1.0" encoding="UTF-8"?><svg xmlns="http://www.w3.org/2000/svg" viewBox="0 0 357.97 97.97"><defs><style>.e{fill:#ffb600;}.f{fill:#122948;}</style></defs><g id="a"/><g id="b"><g id="c"><path class="f" d="M139.57,39.79c.14-1.91-.44-3.79-1.63-5.29-2.03-1.82-4.93-2.29-7.43-1.22-.78,.35-1.46,.88-2,1.55-.54,.69-.95,1.47-1.2,2.31-.28,.92-.41,1.88-.41,2.85v19.24c.07,.89-.26,1.76-.91,2.37-.62,.53-1.42,.81-2.24,.79-.81,.03-1.61-.25-2.22-.79-.63-.62-.96-1.49-.89-2.37v-19.24c.03-.96-.09-1.92-.34-2.84-.26-.84-.66-1.62-1.2-2.31-.54-.66-1.22-1.2-2-1.55-2.5-1.07-5.4-.6-7.43,1.22-1.19,1.49-1.77,3.38-1.63,5.29v19.35c.05,.92-.31,1.81-1,2.42-.63,.56-1.45,.86-2.29,.84-.86,.02-1.7-.28-2.36-.84-.69-.61-1.05-1.5-1-2.42v-19.16c.03-9.23,3.94-13.84,11.71-13.84,1.33-.02,2.66,.16,3.94,.54,1.11,.32,2.16,.81,3.11,1.46,.87,.6,1.63,1.34,2.26,2.19,.6,.81,1.07,1.71,1.38,2.67,.31-.96,.77-1.86,1.37-2.67,.63-.84,1.38-1.58,2.24-2.19,.95-.66,2-1.16,3.11-1.47,1.3-.38,2.65-.56,4-.54,7.8,0,11.7,4.61,11.7,13.84v19.17c.05,.92-.31,1.81-1,2.42-.66,.56-1.5,.86-2.37,.84-.84,.01-1.66-.29-2.29-.84-.69-.61-1.05-1.5-1-2.42l.02-19.36Z"/><path class="f" d="M170.21,61.98c-1.01,.06-2-.25-2.8-.86-1.35-1.32-1.37-3.49-.05-4.84,.02-.02,.04-.04,.05-.05,.79-.61,1.78-.91,2.78-.86h7.73c-.17-.85-.43-1.9-.79-3.13s-.77-2.55-1.24-3.92-1-2.77-1.56-4.18-1.13-2.72-1.7-3.94c-.51-1.09-1.08-2.15-1.71-3.18-.4-.7-.92-1.34-1.53-1.87-.67,.68-1.24,1.45-1.7,2.29-.6,1-1.21,2.19-1.84,3.51s-1.24,2.75-1.83,4.28-1.14,3-1.65,4.58-1,3-1.38,4.42-.73,2.7-1,3.82c-.2,1.15-.62,2.25-1.25,3.23-.59,.76-1.51,1.17-2.47,1.1-.98,.1-1.94-.27-2.6-1-.5-.67-.77-1.48-.76-2.32,.02-.88,.12-1.76,.31-2.62,.2-1,.48-2.17,.84-3.41s.79-2.56,1.29-4,1.06-2.86,1.63-4.35c.72-1.83,1.54-3.8,2.47-5.91,.89-2,1.89-3.94,3-5.82,.92-1.61,2.03-3.11,3.31-4.46,1.46-1.96,4.24-2.36,6.2-.9,.34,.26,.64,.56,.9,.9,1.29,1.35,2.42,2.85,3.36,4.46,1.13,1.87,2.13,3.82,3,5.82,.92,2.11,1.73,4.08,2.45,5.91,.54,1.46,1.06,2.88,1.55,4.27s.92,2.71,1.27,4,.64,2.37,.84,3.41c.19,.86,.29,1.74,.31,2.62,.16,1.52-.95,2.88-2.47,3.04-.28,.03-.56,.02-.84-.04h-12.12Z"/><path class="f" d="M196.77,33.68h-7.47c-.91,.04-1.79-.33-2.41-1-1.2-1.35-1.2-3.38,0-4.73,.62-.67,1.5-1.04,2.41-1h21.43c.91-.04,1.8,.33,2.42,1,1.19,1.35,1.19,3.38,0,4.73-.62,.67-1.51,1.04-2.42,1h-7.38v25.4c.06,.93-.31,1.84-1,2.47-.66,.56-1.5,.86-2.37,.84-.84,.01-1.66-.29-2.29-.84-.69-.63-1.05-1.54-1-2.47l.08-25.4Z"/><path class="e" d="M235.3,53.99c.65-.7,1.2-1.47,1.66-2.31,.59-1,1.18-2.22,1.78-3.54s1.18-2.75,1.75-4.28,1.12-3,1.63-4.55,1-3,1.35-4.41,.71-2.69,.94-3.81c.2-1.15,.61-2.25,1.2-3.26,.57-.79,1.51-1.21,2.47-1.12,.97-.1,1.92,.31,2.52,1.07,.49,.72,.75,1.57,.74,2.44-.02,.86-.13,1.71-.31,2.55-.2,1-.48,2.14-.84,3.38s-.77,2.56-1.25,4-1,2.84-1.57,4.3c-.48,1.22-1,2.51-1.56,3.87s-1.14,2.7-1.75,4-1.27,2.6-2,3.82c-.63,1.12-1.35,2.19-2.14,3.21-.65,.83-1.41,1.57-2.26,2.19-.7,.51-1.54,.79-2.4,.81-1.35-.08-2.61-.72-3.48-1.76-1.27-1.34-2.37-2.83-3.27-4.44-1.09-1.88-2.05-3.82-2.9-5.82-.87-2.12-1.68-4.09-2.42-5.91-.54-1.42-1-2.83-1.53-4.22s-.89-2.71-1.24-4-.64-2.37-.84-3.41c-.19-.86-.29-1.74-.31-2.62,0-.86,.24-1.7,.71-2.42,1.27-1.38,3.42-1.47,4.8-.2,.07,.06,.13,.13,.2,.2,.62,.99,1.02,2.1,1.19,3.26,.21,1.08,.49,2.34,.87,3.76s.8,2.9,1.3,4.43,1,3.06,1.6,4.61,1.17,3,1.78,4.3,1.21,2.49,1.81,3.51c.47,.87,1.07,1.67,1.77,2.37Z"/><path class="e" d="M258.97,29.97c-.05-.91,.32-1.79,1-2.39,.65-.58,1.49-.89,2.36-.87,.85-.01,1.67,.3,2.3,.87,.68,.6,1.05,1.48,1,2.39v29.11c.06,.93-.31,1.84-1,2.47-.64,.55-1.46,.85-2.3,.84-.86,.02-1.7-.28-2.36-.84-.69-.63-1.06-1.54-1-2.47V29.97Z"/><path class="e" d="M300.2,51.5c.05,1.72-.29,3.43-1,5-.67,1.42-1.66,2.67-2.9,3.65-1.26,1-2.72,1.74-4.27,2.17-1.73,.48-3.52,.72-5.32,.71-1.29-.02-2.57-.14-3.84-.36-1.44-.22-2.85-.61-4.2-1.17-1.25-.51-2.4-1.25-3.37-2.19-.92-.86-1.42-2.07-1.4-3.33-.04-.82,.26-1.61,.84-2.19,.6-.56,1.4-.85,2.22-.82,.45,0,.89,.1,1.3,.28,.44,.2,.86,.42,1.27,.67,.42,.25,.85,.51,1.27,.78,.39,.26,.81,.49,1.25,.67,.86,.37,1.74,.67,2.64,.91,.9,.24,1.82,.36,2.75,.36,.76,0,1.53-.09,2.27-.26,.71-.16,1.39-.44,2-.84,.6-.39,1.1-.92,1.45-1.55,.4-.73,.59-1.56,.56-2.39,.04-.82-.2-1.63-.68-2.29-.46-.58-1.06-1.04-1.74-1.32-.78-.32-1.59-.55-2.42-.67-.88-.13-1.75-.25-2.6-.35-3.8-.48-6.74-1.57-8.83-3.26-2.14-1.79-3.31-4.49-3.15-7.28-.06-1.72,.34-3.43,1.17-4.94,.75-1.29,1.8-2.37,3.06-3.15,1.31-.8,2.76-1.37,4.27-1.68,1.59-.34,3.21-.51,4.84-.51,1.26,.01,2.52,.12,3.76,.31,1.39,.19,2.75,.55,4.05,1.09,1.2,.48,2.29,1.2,3.21,2.11,.86,.88,1.32,2.08,1.29,3.31,.02,.82-.27,1.62-.81,2.24-.54,.61-1.33,.95-2.14,.92-.47,0-.94-.09-1.37-.28-.41-.19-.8-.42-1.17-.69-.38-.27-.74-.56-1.1-.87-.36-.3-.74-.57-1.14-.81-.78-.48-1.65-.82-2.55-1-.89-.19-1.79-.28-2.7-.28-.74,0-1.49,.08-2.21,.25-.71,.15-1.39,.43-2,.82-.6,.36-1.11,.87-1.46,1.48-.38,.69-.56,1.46-.53,2.24-.05,.87,.24,1.72,.81,2.37,.56,.58,1.25,1.02,2,1.3,.84,.31,1.71,.52,2.59,.63,.92,.12,1.73,.25,2.44,.38,1.59,.28,3.15,.66,4.69,1.15,1.3,.4,2.52,1,3.64,1.78,1,.72,1.81,1.67,2.36,2.77,.63,1.28,.93,2.7,.9,4.13Z"/><path class="e" d="M308.85,29.97c-.05-.91,.32-1.79,1-2.39,.65-.58,1.49-.89,2.36-.87,.85-.01,1.68,.3,2.31,.87,.68,.6,1.05,1.48,1,2.39v29.11c.06,.93-.31,1.84-1,2.47-.64,.56-1.46,.86-2.31,.84-.86,.02-1.7-.28-2.36-.84-.69-.63-1.05-1.54-1-2.47V29.97Z"/><path class="e" d="M341.02,63c-2.37,.04-4.72-.41-6.92-1.3-2.03-.83-3.85-2.11-5.32-3.74-1.53-1.71-2.69-3.72-3.41-5.9-.83-2.51-1.24-5.14-1.2-7.79-.04-2.6,.37-5.19,1.2-7.66,.71-2.12,1.87-4.07,3.41-5.7,1.49-1.55,3.31-2.76,5.32-3.54,4.47-1.63,9.37-1.63,13.84,0,2.02,.78,3.85,1.98,5.36,3.54,1.54,1.64,2.71,3.58,3.44,5.7,.85,2.46,1.26,5.06,1.22,7.66,.04,2.65-.38,5.28-1.22,7.79-.74,2.18-1.91,4.18-3.44,5.9-1.47,1.63-3.29,2.91-5.32,3.74-2.21,.9-4.58,1.34-6.96,1.3Zm0-6.92c1.49,.02,2.97-.27,4.35-.84,1.28-.54,2.41-1.35,3.33-2.39,.95-1.08,1.67-2.34,2.14-3.7,.53-1.56,.79-3.21,.77-4.86,.02-1.63-.24-3.24-.77-4.78-.46-1.35-1.19-2.58-2.14-3.64-.92-1.01-2.06-1.81-3.33-2.32-1.38-.55-2.86-.83-4.35-.81-1.48-.02-2.96,.25-4.33,.81-1.26,.52-2.39,1.31-3.31,2.32-.93,1.05-1.64,2.28-2.08,3.62-.51,1.54-.76,3.16-.74,4.78-.02,1.66,.23,3.31,.74,4.88,.45,1.37,1.17,2.63,2.11,3.72,.92,1.03,2.05,1.85,3.31,2.39,1.36,.57,2.83,.84,4.3,.82Z"/><g id="d"><path class="e" d="M45.84,36.21v12.34c2.39,1.06,4.06,3.46,4.06,6.24,0,1.67-.6,3.21-1.6,4.39,1.26,2.24,3.03,4.85,5.45,7.4,1.1-.75,2.42-1.19,3.85-1.19,3.77,0,6.83,3.06,6.83,6.83,0,.46-.05,.91-.13,1.34,4.37,.92,11.3,1.86,19.26,.81,2.28-2.77,3.57-6.3,3.53-9.99l-.31-32.98c-.02-1.92-.39-3.78-1.07-5.51-8.71,2.44-20.68,5.06-35.89,5.63-.51,2.12-2.01,3.85-3.98,4.69Z"/><path class="e" d="M37.06,26.88c1.12-2.25,3.44-3.8,6.12-3.8s5.02,1.56,6.13,3.82c10.79-.4,22.26-1.96,33.87-5.29-1.16-1.39-2.57-2.59-4.2-3.52L50.94,2.05c-4.86-2.78-10.84-2.72-15.65,.15L7.55,18.77c-1.48,.88-2.78,1.99-3.86,3.27,8.9,2.29,20.4,4.32,33.37,4.84Z"/><path class="e" d="M62.11,77.36c-1.2,1.06-2.78,1.71-4.51,1.71-3.77,0-6.83-3.06-6.83-6.83,0-.68,.1-1.34,.29-1.97-2.48-2.33-4.96-5.23-6.83-8.74-.38,.06-.76,.1-1.15,.1-3.01,0-5.56-1.95-6.47-4.65-3.52,.02-7.72,.52-12.12,2.13,.05,.34,.08,.68,.08,1.03,0,3.77-3.06,6.83-6.83,6.83-.67,0-1.32-.1-1.93-.28-1.77,3.51-3.51,8.29-3.87,13.99l24.23,13.87c4.86,2.78,10.84,2.72,15.65-.15l25.95-15.51c-4.82,.24-10.29-.04-15.65-1.54Z"/><path class="e" d="M11.97,63.83c-.68-1.06-1.08-2.33-1.08-3.69,0-3.77,3.06-6.83,6.83-6.83,1.86,0,3.54,.74,4.77,1.95,3.51-1.38,8.59-2.93,14.23-3,.81-2.02,2.54-3.56,4.68-4.09v-11.65c-2.41-.65-4.3-2.58-4.87-5.03-10.59-.45-22.42-1.92-35.5-4.96C.34,28.32-.02,30.25,0,32.22l.31,32.98c.05,5.38,2.88,10.33,7.47,13.11,.39-4.18,1.45-9.52,4.19-14.48Z"/></g><g><path class="f" d="M236.14,88.11c0-7.97,5.41-13.31,12.86-13.31,5.54,0,8.86,3.39,8.86,9.54,0,7.87-5.5,13.63-12.96,13.63-5.47,0-8.77-3.65-8.77-9.85Zm17.66-3.33c0-4.1-2.08-5.86-5.54-5.86-4.58,0-8.03,3.81-8.03,8.74,0,4.16,2.05,5.95,5.44,5.95,4.64,0,8.13-3.97,8.13-8.83Z"/><path class="f" d="M286.9,83.38c.06-.45,.13-.9,.13-1.28,0-2.08-1.18-3.17-3.36-3.17-2.56,0-4.29,2.02-4.74,4.58l-2.11,12.1c-.22,1.31-1.25,1.98-2.34,1.98-.96,0-1.66-.51-1.66-1.47,0-.16,.03-.32,.06-.51l2.11-12.1c.1-.51,.13-.96,.13-1.38,0-2.11-1.12-3.2-3.26-3.2-2.59,0-4.26,1.57-4.77,4.45l-2.14,12.16c-.22,1.31-1.31,2.05-2.4,2.05-1.02,0-1.79-.58-1.79-1.63,0-.13,0-.26,.03-.42l2.11-12.03c1.02-5.79,4-8.7,8.86-8.7,3.68,0,5.6,1.92,5.95,4.32,1.25-2.4,3.81-4.32,7.49-4.32,4.03,0,6.08,2.02,6.08,5.98,0,.83-.1,1.73-.26,2.72l-2.11,12.03c-.22,1.31-1.31,2.05-2.46,2.05-.96,0-1.73-.58-1.73-1.63,0-.13,0-.26,.03-.42l2.14-12.16Z"/><path class="f" d="M309.39,83.63c.1-.58,.16-1.09,.16-1.57,0-2.18-1.15-3.17-3.46-3.17-2.91,0-5.06,1.63-5.57,4.58l-2.11,12.06c-.26,1.38-1.31,2.02-2.43,2.02-.96,0-1.79-.48-1.79-1.57,0-.13,.03-.29,.06-.45l3.26-18.49c.22-1.22,1.12-1.89,2.3-1.89,.99,0,1.44,.51,1.44,1.66,0,.32-.03,.67-.1,1.06,1.31-1.76,3.49-3.07,6.08-3.07,4.35,0,6.56,2.3,6.56,6.43,0,.8-.06,1.63-.22,2.53l-2.08,11.78c-.26,1.34-1.44,2.02-2.46,2.02-.96,0-1.79-.51-1.79-1.57,0-.13,.03-.29,.06-.45l2.08-11.9Z"/><path class="f" d="M325.55,87.79c-2.08,0-4.48,.48-4.48,3.33,0,2.43,2.08,2.78,4,2.78,3.65,0,4.83-2.34,6.75-2.34,.99,0,1.47,.67,1.47,1.57,0,3.58-4.96,4.83-8.74,4.83s-7.87-1.15-7.87-5.41c0-3.1,2.14-5.89,5.34-6.53-2.08-.45-3.07-2.14-3.07-4.19,0-5.54,5.31-7.04,9.57-7.04,2.53,0,7.26,.93,7.26,3.9,0,1.28-.99,2.05-2.02,2.05-1.31,0-2.02-.96-3.04-1.44-.96-.42-1.98-.54-3.1-.54-2.14,0-4.9,.74-4.9,3.62,0,2.11,1.57,2.24,3.23,2.24h.86c.99,0,1.98,.1,1.98,1.25,0,1.25-.77,1.92-1.98,1.92h-1.28Z"/><path class="f" d="M344.24,97.97c-2.98,0-7.36-1.28-7.36-4.13,0-1.28,.96-2.14,2.21-2.14,1.31,0,2.11,.99,3.14,1.54,.99,.51,2.05,.74,3.14,.74,2.14,0,4.58-.96,4.58-3.49,0-1.76-1.89-2.11-3.52-2.43-3.1-.61-7.17-1.57-7.17-5.89,0-5.44,5.06-7.36,9.57-7.36,2.5,0,7.1,.74,7.1,3.94,0,1.22-.77,2.18-2.02,2.18-1.34,0-1.95-1.06-3.04-1.63-1.09-.54-1.98-.67-3.04-.67-1.95,0-4.48,.83-4.48,3.23,0,2.18,1.79,2.4,3.36,2.66,3.42,.54,7.3,1.31,7.3,5.6,0,4.93-4.29,7.87-9.76,7.87Z"/></g></g></g></svg>