<svg width="35" height="30" viewBox="0 0 35 30" fill="none" xmlns="http://www.w3.org/2000/svg">
<path fill-rule="evenodd" clip-rule="evenodd" d="M9.99156 6.27252C9.96324 6.33031 9.93942 6.38022 9.92014 6.42134H2.45508C1.35051 6.42134 0.455078 7.31678 0.455078 8.42135V10.4176L17.1231 17.681C17.4969 17.8438 17.9208 17.8475 18.2973 17.6913L34.9515 10.7795V8.42134C34.9515 7.31678 34.056 6.42134 32.9515 6.42134H24.7677C24.7484 6.38022 24.7246 6.33031 24.6963 6.27252C24.6169 6.11051 24.5016 5.88536 24.3513 5.61796C24.0525 5.08662 23.6057 4.37082 23.0159 3.64706C21.882 2.2559 19.9705 0.537109 17.3439 0.537109C14.7174 0.537109 12.8058 2.2559 11.672 3.64706C11.0821 4.37082 10.6353 5.08662 10.3366 5.61796C10.1863 5.88536 10.0709 6.11051 9.99156 6.27252ZM34.9515 11.8622L18.6807 18.6149C18.0531 18.8753 17.3465 18.8691 16.7236 18.5977L0.455078 11.5084V27.8051C0.455078 28.9097 1.35051 29.8051 2.45508 29.8051H32.9515C34.056 29.8051 34.9515 28.9097 34.9515 27.8051V11.8622ZM20.6904 5.54236C20.9333 5.84045 21.1476 6.14084 21.3312 6.42134H13.3567C13.5402 6.14084 13.7545 5.84045 13.9975 5.54236C14.9481 4.37592 16.091 3.53711 17.3439 3.53711C18.5969 3.53711 19.7397 4.37592 20.6904 5.54236Z" fill="#DDA43B"/>
<rect x="15.2393" y="16.4287" width="4.92805" height="3.52004" rx="1" fill="#012840"/>
</svg>
