<svg width="16" height="37" viewBox="0 0 16 37" fill="none" xmlns="http://www.w3.org/2000/svg">
<path d="M15.1168 13.4602V18.2758C15.1168 18.7705 15.0013 19.2488 14.7703 19.6775C14.4898 20.2053 14.1927 20.733 13.9452 21.1618C13.12 22.5966 13.4831 24.691 14.4567 26.0104C14.8528 26.5381 15.1168 27.1483 15.1168 27.808V35.1633C15.1168 36.0538 14.3907 36.763 13.5161 36.763H2.45939C1.56825 36.763 0.858643 36.0373 0.858643 35.1633V27.841C0.858643 27.1813 1.1227 26.5711 1.51876 26.0269C2.50891 24.7075 2.87195 22.6131 2.04683 21.1783C1.79929 20.733 1.50225 20.2053 1.20521 19.6611C0.974171 19.2323 0.858643 18.754 0.858643 18.2593V13.4767C0.858643 12.8335 0.908169 12.2398 1.00718 11.6791C1.83231 6.89649 5.77642 4.99994 5.77642 4.99994V2.93848H10.2156V4.99994C10.2156 4.99994 14.1267 6.89648 14.9683 11.6296C15.0673 12.2068 15.1334 12.8335 15.1334 13.4932L15.1168 13.4602Z" fill="#012840"/>
<path d="M8.84599 4.10969H7.09673C5.97455 4.10969 5.06689 3.20264 5.06689 2.08121C5.06689 0.959771 5.97455 0.0527344 7.09673 0.0527344H8.84599C9.96816 0.0527344 10.8758 0.959771 10.8758 2.08121C10.8758 3.20264 9.96816 4.10969 8.84599 4.10969Z" fill="#DDA43B"/>
<path d="M15.1167 13.4603V17.3194H0.842041V13.4603C0.842041 12.8172 0.891543 12.2235 0.990558 11.6627C3.54845 10.4753 8.9943 8.71073 14.9517 11.5968C15.0507 12.174 15.1167 12.8007 15.1167 13.4603Z" fill="#DDA43B"/>
<path d="M15.1167 28.1873V28.9294C13.1529 28.9129 11.1891 28.847 9.24183 28.8799C7.41005 28.9129 1.81569 29.1273 0.842041 29.1603V28.5996C1.73318 28.5501 2.64081 28.5336 3.51544 28.4842C5.34723 28.4017 13.0704 28.1708 15.1167 28.1543V28.1873Z" fill="#DDA43B"/>
<path d="M15.1167 30.5957V31.2554C12.9384 31.3048 10.7436 31.3048 8.58174 31.3048C6.00734 31.3048 3.41644 31.2718 0.842041 31.1729V30.7276C3.41644 30.7276 12.9384 30.6287 15.1167 30.5957Z" fill="#DDA43B"/>
</svg>
