<svg width="17" height="40" viewBox="0 0 17 40" fill="none" xmlns="http://www.w3.org/2000/svg">
<g clip-path="url(#clip0_638_199)">
<path d="M15.4999 1.64517C15.4999 1.64517 13.5521 1.00863 12.2652 8.53111C10.9329 16.3155 13.0765 15.9044 13.0765 15.9044L15.4999 1.64517Z" fill="#DDA43B"/>
<path d="M0.815827 24.0654H12.6448V22.8417H0.815827V24.0654Z" fill="#012840"/>
<path d="M12.6428 22.8425C12.6428 22.8425 12.9173 21.2178 6.68362 21.211C0.23332 21.2041 0.830233 22.8425 0.830233 22.8425H12.6428Z" fill="#DDA43B"/>
<path d="M12.6243 23.1636L16.0566 1.71094L15.3145 1.59061L11.8822 23.0432L12.6243 23.1636Z" fill="#012840"/>
<path d="M12.8834 39.9914L13.6619 39.9434L12.6346 23.0843L11.8562 23.1324L12.8834 39.9914Z" fill="#012840"/>
<path d="M1.65355 23.1229L0.865479 23.0742L-0.161742 39.9333L0.626334 39.9819L1.65355 23.1229Z" fill="#012840"/>
<path d="M0.815827 30.1846H12.6448V29.3688H0.815827V30.1846Z" fill="#012840"/>
</g>
<defs>
<clipPath id="clip0_638_199">
<rect width="16.3158" height="39.9737" fill="white"/>
</clipPath>
</defs>
</svg>
