<svg width="1440" height="323" viewBox="0 0 1440 323" fill="none" xmlns="http://www.w3.org/2000/svg">
<path d="M-1.62531 134.445C-1.62531 134.445 58.0318 124.115 64.294 116.187C70.5562 108.259 83.3827 70.8874 84.7824 69.5132C86.182 68.139 126.138 30.7443 131.394 21.9418C136.65 13.1392 141.03 -2.54701 148.17 0.352415C155.311 3.25184 163.337 24.8667 145.503 47.1963C145.503 47.1963 166.396 31.2144 172.698 27.9916C179.003 24.7689 199.028 19.6486 206.6 16.1323C214.173 12.6138 235.133 10.0973 239.317 11.0205C243.501 11.9416 247.017 21.6184 234.35 28.4001C221.684 35.1817 212.582 36.5134 212.582 36.5134L200.627 42.2058C200.627 42.2058 220.831 36.0751 223.826 34.869C226.818 33.665 242.204 28.2384 252.654 27.1471C263.105 26.058 265.791 40.4551 251.138 45.6647C236.486 50.8743 230.777 53.6823 230.777 53.6823C230.777 53.6823 207.304 63.5782 204.171 64.5844C201.038 65.5906 196.501 69.6494 196.501 69.6494C196.501 69.6494 219.263 63.8016 221.92 62.5359C224.576 61.2702 251.561 52.1762 253.801 53.2717C256.043 54.3673 267.134 63.4825 249.53 71.6447C231.926 79.8069 227.027 79.975 227.027 79.975C227.027 79.975 215.151 86.2035 201.808 89.9071C201.808 89.9071 193.72 97.3354 180.677 102.309L177.546 106.272C177.546 106.272 190.413 102.309 192.812 101.52C195.212 100.73 212.56 96.0016 215.277 94.3998C217.993 92.798 236.65 86.563 239.366 87.9202C242.083 89.2774 250.2 97.5119 232.06 105.751C213.92 113.992 210.846 114.66 210.846 114.66L197.8 119.635C197.8 119.635 182.834 128.616 179.107 130.037C179.107 130.037 173.994 135.387 172.428 137.368C170.862 139.35 164.085 148.23 159.308 150.68C159.308 150.68 134.357 174.926 122.083 178.473C122.083 178.473 100.593 189.94 86.9308 188.543C86.9308 188.543 71.0859 188.668 61.4309 192.161C51.7759 195.654 20.2691 203.768 20.2691 203.768L-1.62744 134.441L-1.62531 134.445Z" fill="#E2A3A1"/>
<path d="M78.4816 292.687C78.4816 292.687 104.405 249.27 108.71 246.696C113.017 244.122 171.432 221.612 178.873 221.648C186.311 221.682 211.867 219.087 213.054 218.912C214.241 218.738 236.76 211.175 236.76 211.175C236.76 211.175 261.477 202.077 261.613 198.057C261.747 194.036 255.362 187.706 236.399 194.743C236.399 194.743 254.585 181.213 259.937 175.999C265.289 170.786 277.073 158.626 277.709 157.199C278.347 155.771 280.668 149.732 275.08 149.224C275.08 149.224 294.078 137.637 291.959 131.483C289.84 125.331 283.861 122.859 275.84 126.828C267.818 130.798 260.516 135.795 260.516 135.795C260.516 135.795 248.102 140.655 236.828 148.862C236.828 148.862 229.777 148.992 218.967 152.949C218.967 152.949 229.009 147.892 232.723 145.952C236.437 144.01 245.569 136.484 255.436 130.24C265.304 123.999 278.137 115.682 273.893 108.672C269.648 101.661 258.125 105.301 247.785 110.4C247.785 110.4 229.054 117.766 223.625 121.234C223.625 121.234 208.027 124.503 195.048 131.829L134.999 143.265C134.999 143.265 132.498 139.998 142.167 133.24C151.837 126.482 161.771 120.41 163.853 115.903C163.853 115.903 190.976 91.0566 178.735 73.224C178.735 73.224 172.311 67.4634 157.098 83.7666C157.098 83.7666 127.909 109.402 123.749 111.874C119.588 114.346 104.133 121.876 100.88 125.022C97.6278 128.168 90.9146 136.35 87.6899 138.603C84.4652 140.855 60.5522 162.804 61.6413 174.038C62.7303 185.272 24.4019 234.962 24.4019 234.962L78.4816 292.687Z" fill="#FAC5C2"/>
<path d="M99.6723 263.731L-8.10858 460.001L-25 278.211L38.5412 209.033L99.6723 263.731Z" fill="#DDA43B"/>
<path d="M43.0233 200.456L27.472 125.913L-11.6733 134.494L-0.948424 216.008L43.0233 200.456Z" fill="#DDA43B"/>
<path d="M1447.75 153.445C1447.75 153.445 1388.09 143.115 1381.83 135.187C1375.57 127.259 1362.74 89.8874 1361.34 88.5132C1359.94 87.139 1319.99 49.7443 1314.73 40.9418C1309.47 32.1392 1305.09 16.453 1297.95 19.3524C1290.81 22.2518 1282.79 43.8667 1300.62 66.1963C1300.62 66.1963 1279.73 50.2144 1273.43 46.9916C1267.12 43.7689 1247.1 38.6486 1239.52 35.1323C1231.95 31.6138 1210.99 29.0973 1206.81 30.0205C1202.62 30.9416 1199.11 40.6184 1211.77 47.4001C1224.44 54.1817 1233.54 55.5134 1233.54 55.5134L1245.5 61.2058C1245.5 61.2058 1225.29 55.0751 1222.3 53.869C1219.31 52.665 1203.92 47.2384 1193.47 46.1471C1183.02 45.058 1180.33 59.4551 1194.99 64.6647C1209.64 69.8743 1215.35 72.6823 1215.35 72.6823C1215.35 72.6823 1238.82 82.5782 1241.95 83.5844C1245.09 84.5906 1249.62 88.6494 1249.62 88.6494C1249.62 88.6494 1226.86 82.8016 1224.2 81.5359C1221.55 80.2702 1194.56 71.1762 1192.32 72.2717C1190.08 73.3673 1178.99 82.4825 1196.59 90.6447C1214.2 98.8069 1219.1 98.975 1219.1 98.975C1219.1 98.975 1230.97 105.204 1244.32 108.907C1244.32 108.907 1252.4 116.335 1265.45 121.309L1268.58 125.272C1268.58 125.272 1255.71 121.309 1253.31 120.52C1250.91 119.73 1233.56 115.002 1230.85 113.4C1228.13 111.798 1209.47 105.563 1206.76 106.92C1204.04 108.277 1195.92 116.512 1214.06 124.751C1232.2 132.992 1235.28 133.66 1235.28 133.66L1248.32 138.635C1248.32 138.635 1263.29 147.616 1267.02 149.037C1267.02 149.037 1272.13 154.387 1273.7 156.368C1275.26 158.35 1282.04 167.23 1286.82 169.68C1286.82 169.68 1311.77 193.926 1324.04 197.473C1324.04 197.473 1345.53 208.94 1359.19 207.543C1359.19 207.543 1375.04 207.668 1384.69 211.161C1394.35 214.654 1425.85 222.768 1425.85 222.768L1447.75 153.441L1447.75 153.445Z" fill="#E2A3A1"/>
<path d="M1367.64 311.687C1367.64 311.687 1341.72 268.27 1337.41 265.696C1333.11 263.122 1274.69 240.612 1267.25 240.648C1259.81 240.682 1234.26 238.087 1233.07 237.912C1231.88 237.738 1209.36 230.175 1209.36 230.175C1209.36 230.175 1184.65 221.077 1184.51 217.057C1184.38 213.036 1190.76 206.706 1209.73 213.743C1209.73 213.743 1191.54 200.213 1186.19 194.999C1180.83 189.786 1169.05 177.626 1168.41 176.199C1167.78 174.771 1165.46 168.732 1171.04 168.224C1171.04 168.224 1152.05 156.637 1154.17 150.483C1156.28 144.331 1162.26 141.859 1170.28 145.828C1178.31 149.798 1185.61 154.795 1185.61 154.795C1185.61 154.795 1198.02 159.655 1209.3 167.862C1209.3 167.862 1216.35 167.992 1227.16 171.949C1227.16 171.949 1217.11 166.892 1213.4 164.952C1209.69 163.01 1200.56 155.484 1190.69 149.24C1180.82 142.999 1167.99 134.682 1172.23 127.672C1176.48 120.661 1188 124.301 1198.34 129.4C1198.34 129.4 1217.07 136.766 1222.5 140.234C1222.5 140.234 1238.1 143.503 1251.08 150.829L1311.12 162.265C1311.12 162.265 1313.63 158.998 1303.96 152.24C1294.29 145.482 1284.35 139.41 1282.27 134.903C1282.27 134.903 1255.15 110.057 1267.39 92.224C1267.39 92.224 1273.81 86.4634 1289.03 102.767C1289.03 102.767 1318.21 128.402 1322.38 130.874C1326.54 133.346 1341.99 140.876 1345.24 144.022C1348.5 147.168 1355.21 155.35 1358.43 157.603C1361.66 159.855 1385.57 181.804 1384.48 193.038C1383.39 204.272 1421.72 253.962 1421.72 253.962L1367.64 311.687Z" fill="#FAC5C2"/>
<path d="M1346.45 282.731L1454.23 479.001L1471.12 297.211L1407.58 228.033L1346.45 282.731Z" fill="#4397D1"/>
<path d="M1403.1 219.456L1418.65 144.913L1457.8 153.494L1447.07 235.008L1403.1 219.456Z" fill="#4397D1"/>
</svg>
