<svg width="30" height="32" viewBox="0 0 30 32" fill="none" xmlns="http://www.w3.org/2000/svg">
<path fill-rule="evenodd" clip-rule="evenodd" d="M29.2689 11.0871V29.0581C29.2689 30.1627 28.3735 31.0581 27.2689 31.0581H19.5C18.3954 31.0581 17.5 30.1627 17.5 29.0581V23.9996C17.5 22.8951 16.6046 21.9996 15.5 21.9996H14.5H13.5C12.3954 21.9996 11.5 22.8951 11.5 23.9996V29.0581C11.5 30.1627 10.6046 31.0581 9.5 31.0581H2C0.895431 31.0581 0 30.1627 0 29.0581V11.0538C0 10.4191 0.301305 9.82201 0.811914 9.44495L13.0723 0.391134C13.7629 -0.118846 14.7019 -0.131207 15.4057 0.360417L20.7754 4.1114V2.65835C20.7754 2.10607 21.2231 1.65835 21.7754 1.65835H24.2783C24.8306 1.65835 25.2783 2.10607 25.2783 2.65835V7.25689L28.4143 9.44749C28.9499 9.82162 29.2689 10.4338 29.2689 11.0871Z" fill="#4397D1"/>
</svg>
