<?xml version="1.0" encoding="UTF-8"?><svg xmlns="http://www.w3.org/2000/svg" viewBox="0 0 403.09 142.55"><defs><style>.e,.f{fill:#f9f9fa;}.g{fill:#ffb600;}.f{font-family:SiliconeRg-Italic, Silicone;font-size:34px;letter-spacing:.05em;}</style></defs><g id="a"/><g id="b"><g id="c"><g><path class="e" d="M184.7,66.48c.14-1.91-.44-3.79-1.63-5.29-2.03-1.82-4.93-2.29-7.43-1.22-.78,.35-1.46,.88-2,1.55-.54,.69-.95,1.47-1.2,2.31-.28,.92-.41,1.88-.41,2.85v19.24c.07,.89-.26,1.76-.91,2.37-.62,.53-1.42,.81-2.24,.79-.81,.03-1.61-.25-2.22-.79-.63-.62-.96-1.49-.89-2.37v-19.24c.03-.96-.09-1.92-.34-2.84-.26-.84-.66-1.62-1.2-2.31-.54-.66-1.22-1.2-2-1.55-2.5-1.07-5.4-.6-7.43,1.22-1.19,1.49-1.77,3.38-1.63,5.29v19.35c.05,.92-.31,1.81-1,2.42-.63,.56-1.45,.86-2.29,.84-.86,.02-1.7-.28-2.36-.84-.69-.61-1.05-1.5-1-2.42v-19.16c.03-9.23,3.94-13.84,11.71-13.84,1.33-.02,2.66,.16,3.94,.54,1.11,.32,2.16,.81,3.11,1.46,.87,.6,1.63,1.34,2.26,2.19,.6,.81,1.07,1.71,1.38,2.67,.31-.96,.77-1.86,1.37-2.67,.63-.84,1.38-1.58,2.24-2.19,.95-.66,2-1.16,3.11-1.47,1.3-.38,2.65-.56,4-.54,7.8,0,11.7,4.61,11.7,13.84v19.17c.05,.92-.31,1.81-1,2.42-.66,.56-1.5,.86-2.37,.84-.84,.01-1.66-.29-2.29-.84-.69-.61-1.05-1.5-1-2.42l.02-19.36Z"/><path class="e" d="M215.34,88.67c-1.01,.06-2-.25-2.8-.86-1.35-1.32-1.37-3.49-.05-4.84,.02-.02,.04-.04,.05-.05,.79-.61,1.78-.91,2.78-.86h7.73c-.17-.85-.43-1.9-.79-3.13s-.77-2.55-1.24-3.92-1-2.77-1.56-4.18-1.13-2.72-1.7-3.94c-.51-1.09-1.08-2.15-1.71-3.18-.4-.7-.92-1.34-1.53-1.87-.67,.68-1.24,1.45-1.7,2.29-.6,1-1.21,2.19-1.84,3.51s-1.24,2.75-1.83,4.28-1.14,3-1.65,4.58-1,3-1.38,4.42-.73,2.7-1,3.82c-.2,1.15-.62,2.25-1.25,3.23-.59,.76-1.51,1.17-2.47,1.1-.98,.1-1.94-.27-2.6-1-.5-.67-.77-1.48-.76-2.32,.02-.88,.12-1.76,.31-2.62,.2-1,.48-2.17,.84-3.41s.79-2.56,1.29-4,1.06-2.86,1.63-4.35c.72-1.83,1.54-3.8,2.47-5.91,.89-2,1.89-3.94,3-5.82,.92-1.61,2.03-3.11,3.31-4.46,1.46-1.96,4.24-2.36,6.2-.9,.34,.26,.64,.56,.9,.9,1.29,1.35,2.42,2.85,3.36,4.46,1.13,1.87,2.13,3.82,3,5.82,.92,2.11,1.73,4.08,2.45,5.91,.54,1.46,1.06,2.88,1.55,4.27s.92,2.71,1.27,4,.64,2.37,.84,3.41c.19,.86,.29,1.74,.31,2.62,.16,1.52-.95,2.88-2.47,3.04-.28,.03-.56,.02-.84-.04h-12.12Z"/><path class="e" d="M241.9,60.37h-7.47c-.91,.04-1.79-.33-2.41-1-1.2-1.35-1.2-3.38,0-4.73,.62-.67,1.5-1.04,2.41-1h21.43c.91-.04,1.8,.33,2.42,1,1.19,1.35,1.19,3.38,0,4.73-.62,.67-1.51,1.04-2.42,1h-7.38v25.4c.06,.93-.31,1.84-1,2.47-.66,.56-1.5,.86-2.37,.84-.84,.01-1.66-.29-2.29-.84-.69-.63-1.05-1.54-1-2.47l.08-25.4Z"/><path class="g" d="M280.43,80.68c.65-.7,1.2-1.47,1.66-2.31,.59-1,1.18-2.22,1.78-3.54s1.18-2.75,1.75-4.28,1.12-3,1.63-4.55,1-3,1.35-4.41,.71-2.69,.94-3.81c.2-1.15,.61-2.25,1.2-3.26,.57-.79,1.51-1.21,2.47-1.12,.97-.1,1.92,.31,2.52,1.07,.49,.72,.75,1.57,.74,2.44-.02,.86-.13,1.71-.31,2.55-.2,1-.48,2.14-.84,3.38s-.77,2.56-1.25,4-1,2.84-1.57,4.3c-.48,1.22-1,2.51-1.56,3.87s-1.14,2.7-1.75,4-1.27,2.6-2,3.82c-.63,1.12-1.35,2.19-2.14,3.21-.65,.83-1.41,1.57-2.26,2.19-.7,.51-1.54,.79-2.4,.81-1.35-.08-2.61-.72-3.48-1.76-1.27-1.34-2.37-2.83-3.27-4.44-1.09-1.88-2.05-3.82-2.9-5.82-.87-2.12-1.68-4.09-2.42-5.91-.54-1.42-1-2.83-1.53-4.22s-.89-2.71-1.24-4-.64-2.37-.84-3.41c-.19-.86-.29-1.74-.31-2.62,0-.86,.24-1.7,.71-2.42,1.27-1.38,3.42-1.47,4.8-.2,.07,.06,.13,.13,.2,.2,.62,.99,1.02,2.1,1.19,3.26,.21,1.08,.49,2.34,.87,3.76s.8,2.9,1.3,4.43,1,3.06,1.6,4.61,1.17,3,1.78,4.3,1.21,2.49,1.81,3.51c.47,.87,1.07,1.67,1.77,2.37Z"/><path class="g" d="M304.1,56.66c-.05-.91,.32-1.79,1-2.39,.65-.58,1.49-.89,2.36-.87,.85-.01,1.67,.3,2.3,.87,.68,.6,1.05,1.48,1,2.39v29.11c.06,.93-.31,1.84-1,2.47-.64,.55-1.46,.85-2.3,.84-.86,.02-1.7-.28-2.36-.84-.69-.63-1.06-1.54-1-2.47v-29.11Z"/><path class="g" d="M345.33,78.19c.05,1.72-.29,3.43-1,5-.67,1.42-1.66,2.67-2.9,3.65-1.26,1-2.72,1.74-4.27,2.17-1.73,.48-3.52,.72-5.32,.71-1.29-.02-2.57-.14-3.84-.36-1.44-.22-2.85-.61-4.2-1.17-1.25-.51-2.4-1.25-3.37-2.19-.92-.86-1.42-2.07-1.4-3.33-.04-.82,.26-1.61,.84-2.19,.6-.56,1.4-.85,2.22-.82,.45,0,.89,.1,1.3,.28,.44,.2,.86,.42,1.27,.67,.42,.25,.85,.51,1.27,.78,.39,.26,.81,.49,1.25,.67,.86,.37,1.74,.67,2.64,.91,.9,.24,1.82,.36,2.75,.36,.76,0,1.53-.09,2.27-.26,.71-.16,1.39-.44,2-.84,.6-.39,1.1-.92,1.45-1.55,.4-.73,.59-1.56,.56-2.39,.04-.82-.2-1.63-.68-2.29-.46-.58-1.06-1.04-1.74-1.32-.78-.32-1.59-.55-2.42-.67-.88-.13-1.75-.25-2.6-.35-3.8-.48-6.74-1.57-8.83-3.26-2.14-1.79-3.31-4.49-3.15-7.28-.06-1.72,.34-3.43,1.17-4.94,.75-1.29,1.8-2.37,3.06-3.15,1.31-.8,2.76-1.37,4.27-1.68,1.59-.34,3.21-.51,4.84-.51,1.26,.01,2.52,.12,3.76,.31,1.39,.19,2.75,.55,4.05,1.09,1.2,.48,2.29,1.2,3.21,2.11,.86,.88,1.32,2.08,1.29,3.31,.02,.82-.27,1.62-.81,2.24-.54,.61-1.33,.95-2.14,.92-.47,0-.94-.09-1.37-.28-.41-.19-.8-.42-1.17-.69-.38-.27-.74-.56-1.1-.87-.36-.3-.74-.57-1.14-.81-.78-.48-1.65-.82-2.55-1-.89-.19-1.79-.28-2.7-.28-.74,0-1.49,.08-2.21,.25-.71,.15-1.39,.43-2,.82-.6,.36-1.11,.87-1.46,1.48-.38,.69-.56,1.46-.53,2.24-.05,.87,.24,1.72,.81,2.37,.56,.58,1.25,1.02,2,1.3,.84,.31,1.71,.52,2.59,.63,.92,.12,1.73,.25,2.44,.38,1.59,.28,3.15,.66,4.69,1.15,1.3,.4,2.52,1,3.64,1.78,1,.72,1.81,1.67,2.36,2.77,.63,1.28,.93,2.7,.9,4.13Z"/><path class="g" d="M353.98,56.66c-.05-.91,.32-1.79,1-2.39,.65-.58,1.49-.89,2.36-.87,.85-.01,1.68,.3,2.31,.87,.68,.6,1.05,1.48,1,2.39v29.11c.06,.93-.31,1.84-1,2.47-.64,.56-1.46,.86-2.31,.84-.86,.02-1.7-.28-2.36-.84-.69-.63-1.05-1.54-1-2.47v-29.11Z"/><path class="g" d="M386.15,89.69c-2.37,.04-4.72-.41-6.92-1.3-2.03-.83-3.85-2.11-5.32-3.74-1.53-1.71-2.69-3.72-3.41-5.9-.83-2.51-1.24-5.14-1.2-7.79-.04-2.6,.37-5.19,1.2-7.66,.71-2.12,1.87-4.07,3.41-5.7,1.49-1.55,3.31-2.76,5.32-3.54,4.47-1.63,9.37-1.63,13.84,0,2.02,.78,3.85,1.98,5.36,3.54,1.54,1.64,2.71,3.58,3.44,5.7,.85,2.46,1.26,5.06,1.22,7.66,.04,2.65-.38,5.28-1.22,7.79-.74,2.18-1.91,4.18-3.44,5.9-1.47,1.63-3.29,2.91-5.32,3.74-2.21,.9-4.58,1.34-6.96,1.3Zm0-6.92c1.49,.02,2.97-.27,4.35-.84,1.28-.54,2.41-1.35,3.33-2.39,.95-1.08,1.67-2.34,2.14-3.7,.53-1.56,.79-3.21,.77-4.86,.02-1.63-.24-3.24-.77-4.78-.46-1.35-1.19-2.58-2.14-3.64-.92-1.01-2.06-1.81-3.33-2.32-1.38-.55-2.86-.83-4.35-.81-1.48-.02-2.96,.25-4.33,.81-1.26,.52-2.39,1.31-3.31,2.32-.93,1.05-1.64,2.28-2.08,3.62-.51,1.54-.76,3.16-.74,4.78-.02,1.66,.23,3.31,.74,4.88,.45,1.37,1.17,2.63,2.11,3.72,.92,1.03,2.05,1.85,3.31,2.39,1.36,.57,2.83,.84,4.3,.82Z"/></g><g id="d"><path class="g" d="M67.64,53.43v18.21c3.53,1.57,5.99,5.1,5.99,9.21,0,2.47-.89,4.73-2.36,6.48,1.86,3.3,4.47,7.16,8.04,10.92,1.62-1.11,3.58-1.76,5.69-1.76,5.57,0,10.08,4.51,10.08,10.08,0,.68-.07,1.34-.19,1.97,6.45,1.36,16.68,2.74,28.42,1.19,3.37-4.09,5.27-9.29,5.21-14.75l-.46-48.66c-.03-2.83-.58-5.58-1.58-8.14-12.85,3.61-30.52,7.46-52.96,8.31-.75,3.13-2.96,5.68-5.87,6.92Z"/><path class="g" d="M54.68,39.66c1.65-3.32,5.07-5.6,9.03-5.6s7.41,2.3,9.05,5.64c15.92-.59,32.85-2.9,49.97-7.81-1.71-2.05-3.8-3.82-6.19-5.19L75.16,3.02c-7.17-4.1-16-4.02-23.09,.22L11.14,27.7c-2.18,1.3-4.1,2.94-5.7,4.82,13.13,3.37,30.1,6.37,49.24,7.14Z"/><path class="g" d="M91.65,114.15c-1.78,1.57-4.11,2.52-6.66,2.52-5.57,0-10.08-4.51-10.08-10.08,0-1.01,.15-1.98,.43-2.9-3.66-3.44-7.32-7.72-10.08-12.89-.55,.09-1.12,.15-1.7,.15-4.44,0-8.21-2.87-9.55-6.86-5.19,.02-11.39,.77-17.88,3.15,.08,.5,.11,1,.11,1.52,0,5.57-4.51,10.08-10.08,10.08-.99,0-1.94-.14-2.84-.41-2.62,5.18-5.18,12.23-5.7,20.64l35.76,20.46c7.17,4.1,16,4.02,23.09-.22l38.3-22.89c-7.11,.36-15.18-.06-23.09-2.27Z"/><path class="g" d="M17.66,94.19c-1.01-1.57-1.6-3.44-1.6-5.44,0-5.57,4.51-10.08,10.08-10.08,2.74,0,5.23,1.1,7.05,2.87,5.17-2.03,12.68-4.32,20.99-4.43,1.19-2.97,3.75-5.25,6.91-6.04v-17.19c-3.56-.96-6.34-3.81-7.19-7.41-15.62-.66-33.09-2.83-52.39-7.31C.5,41.79-.03,44.63,0,47.55l.46,48.66c.07,7.93,4.26,15.25,11.02,19.34,.58-6.17,2.14-14.04,6.18-21.36Z"/></g><text class="f" transform="translate(277.3 124.98)"><tspan x="0" y="0">OMNES</tspan></text></g></g></svg>