<svg width="61" height="65" viewBox="0 0 61 65" fill="none" xmlns="http://www.w3.org/2000/svg">
<g filter="url(#filter0_d_522_999)">
<path d="M25.5939 2.72184C28.424 1.0437 31.9444 1.04369 34.7745 2.72183L51.9148 12.8852C54.6484 14.5062 56.3245 17.4486 56.3245 20.6266V41.3734C56.3245 44.5514 54.6484 47.4938 51.9148 49.1148L34.7745 59.2782C31.9444 60.9563 28.424 60.9563 25.5939 59.2782L8.45362 49.1148C5.72001 47.4939 4.04392 44.5514 4.04392 41.3734V20.6266C4.04392 17.4486 5.72001 14.5062 8.45362 12.8852L25.5939 2.72184Z" fill="#FEFFFF" fill-opacity="0.8" shape-rendering="crispEdges"/>
</g>
<path d="M37.1168 26.4602V31.2758C37.1168 31.7705 37.0013 32.2488 36.7703 32.6775C36.4898 33.2053 36.1927 33.733 35.9452 34.1618C35.12 35.5966 35.4831 37.691 36.4567 39.0104C36.8528 39.5381 37.1168 40.1483 37.1168 40.808V48.1633C37.1168 49.0538 36.3907 49.763 35.5161 49.763H24.4594C23.5683 49.763 22.8586 49.0373 22.8586 48.1633V40.841C22.8586 40.1813 23.1227 39.5711 23.5188 39.0269C24.5089 37.7075 24.872 35.6131 24.0468 34.1783C23.7993 33.733 23.5023 33.2053 23.2052 32.6611C22.9742 32.2323 22.8586 31.754 22.8586 31.2593V26.4767C22.8586 25.8335 22.9082 25.2398 23.0072 24.6791C23.8323 19.8965 27.7764 17.9999 27.7764 17.9999V15.9385H32.2156V17.9999C32.2156 17.9999 36.1267 19.8965 36.9683 24.6296C37.0673 25.2068 37.1334 25.8335 37.1334 26.4932L37.1168 26.4602Z" fill="#012840"/>
<path d="M30.846 17.1097H29.0967C27.9746 17.1097 27.0669 16.2026 27.0669 15.0812C27.0669 13.9598 27.9746 13.0527 29.0967 13.0527H30.846C31.9682 13.0527 32.8758 13.9598 32.8758 15.0812C32.8758 16.2026 31.9682 17.1097 30.846 17.1097Z" fill="#DDA43B"/>
<path d="M37.1167 26.4603V30.3194H22.842V26.4603C22.842 25.8172 22.8915 25.2235 22.9906 24.6627C25.5485 23.4753 30.9943 21.7107 36.9517 24.5968C37.0507 25.174 37.1167 25.8007 37.1167 26.4603Z" fill="#DDA43B"/>
<path d="M37.1167 41.1873V41.9294C35.1529 41.9129 33.1891 41.847 31.2418 41.8799C29.41 41.9129 23.8157 42.1273 22.842 42.1603V41.5996C23.7332 41.5501 24.6408 41.5336 25.5154 41.4842C27.3472 41.4017 35.0704 41.1708 37.1167 41.1543V41.1873Z" fill="#DDA43B"/>
<path d="M37.1167 43.5957V44.2554C34.9384 44.3048 32.7436 44.3048 30.5817 44.3048C28.0073 44.3048 25.4164 44.2718 22.842 44.1729V43.7276C25.4164 43.7276 34.9384 43.6287 37.1167 43.5957Z" fill="#DDA43B"/>
<defs>
<filter id="filter0_d_522_999" x="4.04395" y="1.46289" width="56.2805" height="63.0742" filterUnits="userSpaceOnUse" color-interpolation-filters="sRGB">
<feFlood flood-opacity="0" result="BackgroundImageFix"/>
<feColorMatrix in="SourceAlpha" type="matrix" values="0 0 0 0 0 0 0 0 0 0 0 0 0 0 0 0 0 0 127 0" result="hardAlpha"/>
<feOffset dx="2" dy="2"/>
<feGaussianBlur stdDeviation="1"/>
<feComposite in2="hardAlpha" operator="out"/>
<feColorMatrix type="matrix" values="0 0 0 0 0 0 0 0 0 0 0 0 0 0 0 0 0 0 0.5 0"/>
<feBlend mode="normal" in2="BackgroundImageFix" result="effect1_dropShadow_522_999"/>
<feBlend mode="normal" in="SourceGraphic" in2="effect1_dropShadow_522_999" result="shape"/>
</filter>
</defs>
</svg>
