<svg width="706" height="735" viewBox="0 0 706 735" fill="none" xmlns="http://www.w3.org/2000/svg">
<path d="M493.519 0.257812H253.481C241.065 0.257812 231 11.4998 231 25.3676V521.891C231 535.758 241.065 547 253.481 547H493.519C505.935 547 516 535.758 516 521.891V25.3676C516 11.4998 505.935 0.257812 493.519 0.257812Z" fill="#012840"/>
<path d="M483.987 34.2109H263.036C252.05 34.2109 243.14 44.162 243.14 56.4333V515.601C243.14 524.341 249.488 531.43 257.312 531.43H489.688C497.512 531.43 503.859 524.341 503.859 515.601V56.4333C503.859 44.162 494.95 34.2109 483.964 34.2109H483.987Z" fill="#F6F6F6"/>
<path d="M390.949 22.1457H356.513C354.712 22.1457 353.235 20.4958 353.235 18.485C353.235 16.4741 354.712 14.8242 356.513 14.8242H390.949C392.749 14.8242 394.226 16.4741 394.226 18.485C394.226 20.4958 392.749 22.1457 390.949 22.1457Z" fill="white"/>
<g clip-path="url(#clip0_715_187)">
<path d="M482.995 459.922C482.995 481.747 465.274 499.424 443.394 499.424C441.01 499.424 438.706 499.239 436.428 498.79C434.944 498.552 433.488 498.209 432.031 497.76C428.64 496.729 425.409 495.302 422.415 493.453C421.223 492.686 420.084 491.894 418.972 491.048C415.926 488.67 413.25 485.869 411.052 482.725C406.443 476.278 403.767 468.403 403.767 459.922C403.767 438.122 421.488 420.419 443.368 420.419C446.944 420.419 450.361 420.868 453.672 421.767C455.023 422.136 456.347 422.559 457.619 423.088C461.407 424.541 464.93 426.602 468.082 429.086C468.532 429.456 468.982 429.799 469.406 430.169C470.439 431.068 471.446 432.045 472.373 433.076C478.942 440.131 482.968 449.564 482.968 459.948L482.995 459.922Z" fill="#BE8D34"/>
<path d="M475.393 451.889C475.393 473.715 457.672 491.392 435.792 491.392C433.408 491.392 431.104 491.207 428.826 490.758C427.342 490.52 425.885 490.176 424.428 489.727C421.038 488.696 417.806 487.27 414.813 485.42C413.621 484.654 412.482 483.861 411.37 483.016C411.264 482.91 411.131 482.857 411.052 482.725C406.443 476.278 403.767 468.403 403.767 459.922C403.767 438.122 421.488 420.419 443.368 420.419C446.944 420.419 450.361 420.868 453.672 421.767C455.023 422.136 456.347 422.559 457.619 423.088C461.407 424.541 464.956 426.576 468.082 429.086C472.664 435.533 475.366 443.407 475.366 451.889H475.393Z" fill="#DDA43B"/>
<path d="M404.032 258.445C403.953 259.238 403.82 260.057 403.396 260.718C402.814 261.59 401.781 262.065 400.8 262.462C396.377 264.285 391.424 262.303 387.874 259.45C385.013 257.151 382.788 254.138 380.881 250.941C380.696 250.651 380.537 250.36 380.351 250.096C379.345 248.405 378.391 246.449 378.921 244.547C379 244.309 379.08 244.071 379.186 243.833C379.292 243.622 379.398 243.384 379.504 243.173C379.636 242.909 379.768 242.618 379.874 242.354C381.225 238.945 379.345 233.132 378.497 229.671C377.411 225.284 376.14 220.898 374.921 216.512C373.676 212.02 372.59 207.343 371.107 202.851C370.55 201.186 369.941 199.522 369.252 197.91C366.604 191.753 346.048 160.178 346.048 160.178C345.519 153.704 352.512 151.511 352.512 151.511C352.512 151.511 353.306 152.33 354.657 153.73C360.458 159.808 376.431 177.062 383.344 189.243C384.166 190.67 385.305 193.207 386.603 196.483C389.834 204.41 394.152 216.565 397.622 227.636C397.993 228.851 398.39 230.041 398.734 231.23C400.059 235.616 401.675 240.451 402.787 245.34C403.794 249.805 404.376 254.271 403.953 258.472L404.032 258.445Z" fill="#F5A784"/>
<path d="M354.737 153.624C354.737 153.624 352.724 151.193 350.525 147.943C348.327 144.667 343.585 137.453 340.989 136.132C340.989 136.132 340.459 136 339.612 136C339.506 136 339.373 136 339.241 136C338.499 136.053 337.572 136.185 336.592 136.661C336.513 136.687 336.433 136.74 336.354 136.766C335.665 137.11 334.95 137.585 334.314 138.272C334.261 138.325 334.208 138.378 334.155 138.457C333.652 138.986 333.175 139.62 332.725 140.413C332.725 140.413 337.731 147.653 338.446 150.533C338.446 150.533 334.314 146.992 332.725 147.6L332.01 148.525C332.01 148.525 336.009 152.832 337.625 154.919C341.545 159.992 348.274 160.521 348.274 160.521C348.274 160.521 355.134 158.248 354.763 153.651L354.737 153.624Z" fill="#F5A784"/>
<path d="M334.288 138.272L334.129 138.457C336.619 141.523 338.552 144.905 340.645 148.287C340.698 148.34 340.804 148.287 340.777 148.234C339.453 144.429 337.016 141.179 334.288 138.272V138.272Z" fill="#E0855C"/>
<path d="M336.592 136.66C336.592 136.66 336.433 136.739 336.354 136.766C338.87 139.831 340.777 143.213 342.896 146.595C342.949 146.648 343.055 146.595 343.029 146.542C341.704 142.764 339.32 139.54 336.592 136.66V136.66Z" fill="#E0855C"/>
<path d="M339.612 136C339.612 136 339.373 136 339.241 136C341.572 138.907 343.4 142.13 345.386 145.327C345.413 145.407 345.545 145.327 345.519 145.275C344.38 141.734 342.102 138.748 339.612 136Z" fill="#E0855C"/>
<path d="M348.459 236.197C347.85 235.642 347.24 235.087 346.525 234.585C343.4 232.445 341.228 228.006 341.704 224.227C342.022 221.638 343.506 219.339 345.148 217.304C347.399 214.503 350.366 211.861 353.969 211.65C354.286 211.65 354.604 211.65 354.896 211.518C355.293 211.359 355.584 211.042 355.876 210.751C360.485 206.55 366.683 211.597 369.014 215.798C370.498 218.467 370.948 221.77 369.888 224.624C368.935 227.213 366.922 229.142 365.2 231.177C363.504 233.185 362.683 234.321 361.942 236.752C361.491 238.284 359.849 238.971 358.392 239.236C356.114 239.685 353.677 239.368 351.558 238.443C350.287 237.888 349.36 237.042 348.432 236.197H348.459Z" fill="black"/>
<path d="M430.283 322.099C430.283 323.261 430.124 324.397 429.62 325.428C428.587 327.515 426.389 328.731 424.243 329.629C417.647 332.43 410.204 333.619 403.211 331.981C394.814 329.999 390.497 323.288 387.344 316.101C386.523 314.198 385.755 312.269 385.04 310.367C380.934 299.692 374.312 292.452 365.544 285.265C365.253 285.027 364.935 284.763 364.644 284.498C358.286 279.134 353.306 273.11 347.214 267.323C346.79 266.953 346.737 266.319 347.029 265.844C347.505 265.13 348.38 263.968 349.651 262.541C351.479 260.506 354.101 257.943 357.571 255.512C359.24 254.35 361.094 253.213 363.107 252.156C363.134 252.13 363.187 252.104 363.266 252.077C363.584 251.892 363.902 251.734 364.246 251.549C364.352 251.496 364.458 251.443 364.564 251.39C365.041 251.179 359.505 242.221 358.896 241.481C358.18 240.662 357.386 239.79 357.359 238.733C357.359 238.601 357.359 238.469 357.439 238.363C357.439 238.311 357.492 238.284 357.545 238.231C357.624 238.179 357.73 238.152 357.81 238.152C357.942 238.152 358.074 238.152 358.18 238.179C358.366 238.231 358.498 238.284 358.657 238.311C358.816 238.337 358.975 238.363 359.134 238.39C359.452 238.416 359.77 238.469 360.114 238.496C360.405 238.522 360.723 238.575 361.041 238.575C361.65 238.601 362.313 238.628 363.028 238.601C363.107 238.601 363.213 238.601 363.293 238.601C363.478 238.601 363.664 238.601 363.875 238.575C363.928 238.575 364.008 238.575 364.087 238.575C364.326 238.575 364.564 238.575 364.803 238.496C365.2 238.469 365.624 238.416 366.021 238.337C366.445 238.258 366.869 238.205 367.292 238.099C367.796 237.967 368.299 237.835 368.802 237.676C369.597 237.439 370.524 236.805 371.372 236.699C371.557 236.646 371.743 236.646 371.954 236.699C373.041 236.884 374.021 238.258 374.63 239.077C375.08 239.685 376.378 241.376 376.564 241.614C377.04 242.248 377.544 242.908 378.206 243.357C378.577 243.622 378.895 243.754 379.212 243.807C379.345 243.807 379.504 243.807 379.663 243.807C380.113 243.807 380.563 243.595 381.12 243.41C383.08 242.538 387.503 240.689 391.742 239.447C394.761 238.522 398.788 236.461 399.635 238.231C400.748 240.583 401.834 242.935 402.84 245.313C407.158 255.248 410.84 265.315 415.608 275.092C422.362 288.937 427.183 303.708 429.885 318.849C430.071 319.905 430.256 321.015 430.256 322.099H430.283Z" fill="#F5A784"/>
<path d="M376.007 240.9C372.325 243.569 363.822 246.343 357.545 238.284C357.492 238.231 357.439 238.178 357.412 238.099C357.465 238.099 357.598 238.126 357.809 238.178C358.021 238.231 358.313 238.311 358.684 238.363C358.842 238.39 359.001 238.416 359.16 238.443C359.69 238.548 360.352 238.601 361.068 238.628C361.677 238.654 362.339 238.68 363.054 238.654C363.981 238.654 364.961 238.548 366.021 238.363C366.922 238.231 367.849 238.02 368.802 237.703C369.65 237.439 370.524 237.122 371.372 236.725C371.557 236.672 371.742 236.672 371.954 236.725C373.04 236.91 374.021 238.284 374.63 239.103C375.08 239.711 375.557 240.292 376.007 240.9V240.9Z" fill="#E0855C"/>
<path d="M364.988 214.372C367.134 214.874 369.147 217.807 371.372 221.03C378.126 230.807 377.12 235.854 372.352 239.685C367.584 243.516 360.962 244.97 353.916 236.409C350.393 232.128 347.055 228.217 347.452 225.152C348.062 220.555 358.419 212.813 364.988 214.398V214.372Z" fill="#F5A784"/>
<path d="M353.783 234.612C353.783 234.612 349.545 231.467 348.486 235.246C347.426 239.024 354.869 243.094 358.339 240.213C358.339 240.213 355.876 235.272 353.783 234.612V234.612Z" fill="#F5A784"/>
<path d="M350.843 236.408C351.452 236.144 352.353 236.303 352.962 236.408C353.624 236.54 354.419 236.699 354.975 237.095C355.134 237.227 354.975 237.465 354.79 237.439C354.286 237.36 353.783 237.148 353.28 237.016C353.227 237.386 353.147 237.756 352.909 238.047C352.724 238.284 352.379 238.099 352.353 237.862C352.353 237.544 352.459 237.227 352.591 236.91C352.008 236.857 351.373 236.91 350.816 236.778C350.604 236.725 350.604 236.461 350.816 236.382L350.843 236.408Z" fill="#E0855C"/>
<path d="M366.816 223.62C366.816 223.62 367.902 223.382 366.763 221.929C365.756 220.634 365.253 221.215 365.253 221.215C365.253 221.215 364.643 221.585 365.518 222.748C366.392 223.884 366.789 223.62 366.789 223.62H366.816Z" fill="#3B2645"/>
<path d="M358.048 229.221C358.048 229.221 359.108 228.983 357.995 227.53C356.988 226.235 356.485 226.817 356.485 226.817C356.485 226.817 355.876 227.187 356.75 228.349C357.624 229.485 358.021 229.221 358.021 229.221H358.048Z" fill="#3B2645"/>
<path d="M365.518 230.198C365.915 229.855 367.081 229.459 367.001 228.877C366.922 228.375 364.723 226.499 364.352 226.156C363.081 224.94 362.074 224.227 360.697 222.668C360.644 222.589 360.75 222.483 360.829 222.536C363.319 224.174 365.518 226.763 367.69 228.798C367.822 228.904 367.796 229.115 367.663 229.194C367.001 229.591 366.471 230.119 365.836 230.542C365.624 230.674 365.332 230.357 365.544 230.198H365.518Z" fill="#E0855C"/>
<path d="M362.895 219.576C363.319 218.863 364.432 218.044 365.279 218.387C365.438 218.44 365.438 218.705 365.279 218.784C364.961 218.969 364.591 218.995 364.273 219.154C363.928 219.339 363.663 219.629 363.399 219.92C363.16 220.184 362.683 219.867 362.869 219.55L362.895 219.576Z" fill="#3B2645"/>
<path d="M354.26 226.183C354.048 225.073 355.531 224.016 356.538 224.148C356.776 224.174 356.829 224.465 356.697 224.624C356.379 224.993 355.902 225.099 355.531 225.39C355.214 225.654 355.028 225.971 354.763 226.288C354.631 226.447 354.313 226.394 354.26 226.183V226.183Z" fill="#3B2645"/>
<path d="M369.676 231.916C369.676 231.916 366.842 234.373 363.584 234.479C363.584 234.479 365.703 236.012 367.981 235.298C370.259 234.585 369.676 231.916 369.676 231.916Z" fill="white"/>
<path d="M299.164 500.271C304.382 501.539 311.295 500.376 316.646 500.35C320.672 500.35 324.699 500.323 328.751 500.297C332.619 500.297 337.042 502.199 337.89 496.968C338.314 494.167 337.705 491.313 337.519 488.539C337.519 488.459 337.519 488.407 337.519 488.354C337.254 484.1 339.4 479.766 342.075 475.723C344.274 472.421 346.843 469.329 348.724 466.687C355.876 456.672 362.127 446.605 366.842 435.19C371.69 423.432 375.636 411.198 382.073 400.127C388.245 389.478 396.907 377.693 403.397 365.222C403.688 364.64 404.006 364.059 404.297 363.451C410.681 350.689 414.601 337.319 411.105 323.843C410.442 321.227 409.277 318.849 407.476 317.105C406.867 316.497 406.231 315.837 405.622 315.097C404.615 313.934 403.635 312.613 402.681 311.292C398.072 305.003 393.702 298.318 389.013 303.048C387.768 304.29 386.391 306.747 385.04 309.733C381.49 317.528 377.888 329.154 376.378 333.408C364.617 367.045 354.763 401.263 342.42 434.53C341.89 435.93 341.175 437.938 340.327 440.396C337.519 448.402 333.122 460.953 329.255 470.677C326.844 476.728 324.619 481.695 323.056 483.756C322.871 484.02 322.659 484.285 322.421 484.522C319.904 487.535 316.355 489.675 312.673 491.313C308.726 493.083 304.594 494.378 300.7 496.201C299.773 496.624 296.541 499.663 299.19 500.297L299.164 500.271Z" fill="#F5A784"/>
<path d="M404.271 363.451C407.184 375.235 411.158 386.782 413.674 397.035C416.826 409.929 417.224 423.246 418.628 436.405C420.005 449.115 423.29 460.979 427.448 473.028C427.925 474.375 428.375 475.696 428.746 476.991C429.991 480.902 430.892 484.628 431.448 488.644C431.686 490.282 431.872 492 431.978 493.77C432.057 494.933 432.163 496.122 432.799 497.099C433.859 498.738 436.11 499.107 438.07 499.292C447.633 499.292 457.089 499.662 466.704 499.292C467.287 499.266 467.923 499.213 468.347 498.817C469.009 498.235 468.824 497.073 468.188 496.465C467.552 495.831 466.652 495.593 465.804 495.355C461.433 494.246 457.592 492.396 453.301 491.233C451.368 490.705 449.381 490.176 447.792 488.961C446.308 487.798 445.328 486.239 444.666 484.469C443.633 481.668 443.447 478.392 443.368 475.485C443.368 474.719 441.832 425.598 441.275 411.99C440.64 396.215 440.481 380.547 439.103 364.825C438.176 354.255 437.699 342.999 435.686 332.298C434.839 327.806 433.726 323.42 432.216 319.192C430.733 315.096 428.64 310.869 425.091 308.49C424.614 308.173 424.137 307.856 423.581 307.618C417.383 304.527 411.661 305.875 407.847 311.106C407.502 311.556 407.184 312.058 406.893 312.56C406.416 313.379 405.966 314.224 405.542 315.07C398.205 329.708 400.138 346.804 404.218 363.424L404.271 363.451Z" fill="#F5A784"/>
<path d="M443.394 475.511C442.997 475.775 442.547 476.04 442.07 476.225C441.143 476.595 440.163 476.806 439.103 476.938C438.282 477.044 437.434 477.07 436.613 477.017C432.666 476.938 428.746 477.017 428.746 477.017C428.375 475.723 427.925 474.401 427.448 473.054C423.289 461.005 420.005 449.167 418.627 436.431C417.992 430.433 417.541 424.409 416.959 418.411C416.27 411.197 415.396 404.063 413.674 397.061C411.158 386.809 407.184 375.262 404.271 363.477L403.37 365.247C396.88 377.693 388.218 389.504 382.047 400.152C375.61 411.224 371.689 423.431 366.816 435.216C362.101 446.631 355.849 456.698 348.697 466.712C346.817 469.381 344.247 472.446 342.049 475.749C337.042 476.013 329.202 470.702 329.202 470.702C333.069 460.978 337.44 448.427 340.274 440.421C341.122 437.964 341.837 435.956 342.367 434.555C354.71 401.288 364.564 367.07 376.325 333.434C377.835 329.153 381.437 317.553 384.987 309.758C391.344 310.921 397.33 311.317 402.655 311.317C404.482 311.317 406.257 311.238 407.899 311.132C410.416 311 412.747 310.763 414.866 310.498C415.131 310.472 415.422 310.419 415.687 310.366C417.118 310.181 418.442 309.943 419.66 309.732C420.137 309.653 420.588 309.547 420.985 309.468C422.654 309.124 424.058 308.807 425.117 308.517C428.64 310.974 430.759 315.122 432.243 319.218C433.752 323.419 434.865 327.832 435.713 332.324C437.726 343.025 438.203 354.308 439.13 364.851C440.507 380.573 440.639 396.242 441.302 412.016C441.858 425.624 443.368 474.719 443.394 475.511Z" fill="#012840"/>
<path d="M337.89 496.967C337.069 502.199 332.645 500.27 328.751 500.296C324.699 500.296 320.672 500.323 316.646 500.349C311.295 500.349 304.355 501.538 299.164 500.27C296.488 499.636 299.746 496.624 300.673 496.174C304.594 494.351 308.726 493.056 312.646 491.286C316.302 489.674 319.851 487.534 322.394 484.495C322.58 484.442 322.765 484.416 322.95 484.363C325.679 483.94 328.539 486.028 328.937 488.749C331.162 490.625 334.685 488.327 337.493 488.512C337.705 491.312 338.287 494.14 337.863 496.941L337.89 496.967Z" fill="black"/>
<path d="M468.347 498.817C467.923 499.214 467.287 499.24 466.704 499.293C457.089 499.637 447.633 499.293 438.07 499.293C436.11 499.108 433.858 498.738 432.799 497.1C432.163 496.122 432.084 494.933 431.978 493.771C431.845 492 431.686 490.283 431.448 488.645C434.335 488.01 438.203 490.811 440.587 488.803C440.904 486.716 442.653 484.998 444.692 484.496C445.328 486.266 446.308 487.825 447.818 488.988C449.407 490.203 451.367 490.732 453.328 491.26C457.619 492.423 461.486 494.273 465.83 495.382C466.678 495.594 467.579 495.858 468.214 496.492C468.85 497.1 469.035 498.263 468.373 498.844L468.347 498.817Z" fill="black"/>
<path d="M402.231 339.273C401.569 337.212 399.264 336.129 397.119 336.023C395.794 335.97 394.523 336.208 393.251 336.552C392.43 336.763 391.583 337.027 390.788 337.265C388.828 337.794 387.027 337.846 385.278 337.582C378.047 336.42 371.716 332.192 365.995 327.911C363.028 325.692 360.247 323.155 357.2 321.068C353.995 318.901 353.095 318.267 354.525 314.066C354.578 313.933 354.604 313.801 354.657 313.643C357.968 303.919 364.909 283.705 365.041 283.283C365.915 280.772 366.789 278.183 366.869 275.514C367.187 267.217 356.935 256.701 349.651 262.54C348.909 263.122 348.194 263.888 347.532 264.839C346.155 266.794 345.466 269.12 344.804 271.418C342.261 280.297 339.983 289.228 337.996 298.238C337.254 301.567 336.566 304.923 336.062 308.279C335.824 309.811 335.639 311.344 335.48 312.903C335.135 316.866 334.447 322.706 336.248 326.352C339.241 332.35 347.77 336.129 353.704 338.296C360.22 340.7 366.922 342.655 373.623 344.584C378.02 345.853 382.523 347.095 387.053 348.046C388.722 348.389 390.47 348.706 392.139 348.944C393.198 349.076 394.258 349.208 395.291 349.314C399.794 349.737 403.661 343.633 402.231 339.3V339.273ZM386.921 339.537C386.921 339.537 387.027 339.485 387.08 339.537C387.027 339.537 386.974 339.537 386.921 339.537Z" fill="#F5A784"/>
<path d="M428.64 310.605C428.534 310.896 428.402 311.16 428.243 311.398C427.21 312.957 425.144 313.723 423.237 314.146C417.568 315.414 411.714 315.361 405.913 315.255C399.556 315.15 393.145 315.044 387.027 313.432C385.967 313.142 384.854 312.798 384.033 312.085C383.318 311.451 382.841 310.658 382.444 309.759C382.179 309.152 381.941 308.491 381.755 307.883C378.471 298.45 373.173 291.501 365.518 285.239C365.226 285.001 364.909 284.737 364.617 284.472C361.306 294.17 357.969 303.893 354.631 313.617C349.201 312.983 343.85 311.583 338.791 309.522C337.864 309.152 336.937 308.729 336.036 308.253C336.539 304.898 337.228 301.542 337.97 298.213C339.983 289.202 342.234 280.245 344.777 271.393C345.439 269.094 346.155 266.769 347.505 264.814C348.168 263.862 348.883 263.096 349.625 262.515C351.452 260.48 354.075 257.917 357.545 255.486C359.213 254.324 361.068 253.187 363.081 252.13C363.107 252.104 363.16 252.078 363.24 252.051C363.558 251.866 363.875 251.681 364.22 251.523C367.478 252.87 369.729 255.09 373.491 255.671C376.007 256.068 379.106 255.671 380.325 253.399C380.749 252.632 380.855 251.787 380.855 250.862C380.855 250.069 380.696 249.25 380.563 248.484C380.272 246.925 379.557 243.332 379.53 243.094C379.663 242.829 379.795 242.539 379.901 242.275C381.252 238.866 379.371 233.053 378.524 229.591C377.438 225.205 376.166 220.819 374.948 216.433C373.703 211.941 372.617 207.264 371.133 202.772C372.67 200.103 376.06 198.333 379.212 197.408C381.596 196.695 384.166 196.245 386.656 196.378C389.887 204.304 394.205 216.459 397.675 227.53C398.046 228.746 398.443 229.935 398.788 231.124C403.026 245.075 409.065 258.446 415.343 271.657C420.614 282.755 424.826 294.117 428.322 305.928C428.746 307.434 429.197 309.072 428.64 310.526V310.605Z" fill="#012840"/>
<path d="M382.47 309.786C382.206 309.178 381.967 308.517 381.782 307.909C378.497 298.476 373.199 291.527 365.544 285.265C365.253 285.027 364.935 284.763 364.644 284.499L366.895 275.515C366.895 275.515 380.245 285.529 382.497 309.786H382.47Z" fill="#00111C"/>
<path d="M416.959 418.331C416.296 411.171 415.396 404.036 413.674 397.034C411.158 386.782 407.184 375.235 404.271 363.45L406.681 351.824C406.681 351.824 416.826 373.571 417.939 392.754C418.389 400.575 417.806 409.955 416.959 418.331V418.331Z" fill="#00111C"/>
</g>
<path d="M243 381.68L505 296V534H243V381.68Z" fill="#012840" fill-opacity="0.5"/>
<path d="M376.405 271.104L377.218 271.917C377.446 271.829 377.713 271.877 377.897 272.06C378.007 272.171 378.068 272.311 378.08 272.455C378.311 272.519 378.6 272.575 378.927 272.584C378.95 272.462 379.008 272.345 379.102 272.251C379.351 272.002 379.754 272.002 380.002 272.251C380.033 272.281 380.059 272.314 380.082 272.347C380.431 272.12 380.949 271.725 381.404 271.132C381.372 270.799 381.224 270.482 380.978 270.241L378.785 268.089C378.657 267.964 378.51 267.866 378.351 267.796C377.939 268.531 377.322 269.492 376.358 270.531C376.464 270.705 376.479 270.917 376.405 271.102L376.405 271.104Z" fill="#FFB600"/>
<path d="M375.212 271.067C375.137 270.845 375.188 270.591 375.365 270.414C375.542 270.237 375.798 270.186 376.021 270.262C376.705 269.525 377.358 268.666 377.903 267.682C377.735 267.667 377.563 267.681 377.395 267.727L374.49 268.517C373.987 268.654 373.597 269.052 373.469 269.558L372.734 272.477C372.695 272.633 372.682 272.792 372.695 272.947C373.431 272.511 374.323 271.887 375.212 271.067Z" fill="#FFB600"/>
<path d="M380.188 272.743C380.179 272.893 380.117 273.039 380.003 273.153C379.755 273.402 379.352 273.402 379.103 273.153C379.058 273.108 379.022 273.058 378.993 273.004C378.676 273.014 378.322 272.986 377.967 272.879C377.947 272.907 377.924 272.935 377.898 272.961C377.7 273.16 377.404 273.2 377.166 273.081C376.935 273.314 376.692 273.624 376.508 274.02C376.534 274.039 376.558 274.06 376.581 274.083C376.829 274.332 376.829 274.735 376.581 274.983C376.537 275.027 376.488 275.064 376.436 275.092C376.55 275.44 376.75 275.869 377.103 276.268L379.613 275.585C380.116 275.448 380.506 275.05 380.634 274.544L381.322 271.812C381.02 272.146 380.641 272.487 380.189 272.742L380.188 272.743Z" fill="#FFB600"/>
<path d="M375.994 275.155C375.878 275.13 375.769 275.073 375.679 274.983C375.431 274.735 375.431 274.332 375.679 274.083C375.802 273.961 375.962 273.899 376.122 273.897C376.262 273.575 376.495 273.138 376.861 272.762C376.782 272.576 376.795 272.36 376.9 272.184L376.133 271.416C375.931 271.532 375.68 271.529 375.481 271.406C374.754 272.074 373.877 272.757 372.816 273.419C372.888 273.581 372.991 273.732 373.123 273.861L375.316 276.013C375.673 276.364 376.187 276.503 376.671 276.384C376.422 276.083 376.14 275.662 375.994 275.155Z" fill="#FFB600"/>
<path d="M328.144 666.896C325.394 666.545 322.643 666.312 319.857 666.156C319.081 666.156 94.2706 666.039 94.2706 666.039C94.0943 666.039 93.918 666.039 93.7769 666.039C93.53 666.039 93.2832 666.078 93.0011 666.117C92.8953 666.117 6.39167 666 6.39167 666C6.21535 666 6.03903 666 5.89797 666C4.69898 666.078 3.49999 666.195 2.301 666.351C-0.767001 666.701 -0.767001 671.26 2.301 671.61C3.49999 671.766 4.69898 671.883 5.89797 672C6.03903 672 6.21535 672 6.35641 672C6.35641 672 92.7895 671.883 92.86 671.883C93.1774 671.883 93.4595 671.961 93.7769 671.961C93.918 671.961 94.0943 671.961 94.2353 671.961C94.2353 671.961 319.081 671.844 319.857 671.805C322.643 671.649 325.394 671.416 328.109 671.065C330.613 670.753 330.648 667.013 328.109 666.701L328.144 666.896Z" fill="#C6C6C6"/>
<path d="M140.748 545.915C135.724 560.471 120.107 582.85 120.107 582.85L66.5572 560.627C66.7129 558.681 64.0257 548.056 64.4931 544.28C64.4931 543.93 64.6099 543.658 64.6878 543.463C64.8825 543.035 65.0772 542.607 65.233 542.179C66.1288 540.194 67.0634 538.365 67.7645 537.041C68.4655 535.679 68.9718 534.862 68.9718 534.862C68.9718 534.862 67.6866 532.215 63.7531 530.308C61.4943 529.18 58.3787 528.362 54.0947 528.362C53.8221 528.362 53.5884 528.362 53.3158 528.362C48.7982 528.09 50.4728 524.86 53.6663 521.435C57.4829 517.27 63.4805 512.833 63.4805 512.833L77.2671 521.746C78.046 522.174 79.4091 521.162 80.8111 519.489C82.1352 517.971 83.4983 515.83 84.5888 513.651C85.2898 512.211 85.8739 510.771 86.2245 509.447C86.6529 507.774 93.7019 512.328 102.581 518.71C111.734 525.288 122.872 533.85 130.895 539.61C135.529 542.957 139.112 545.37 140.709 545.915H140.748Z" fill="#F5A784"/>
<path d="M335.707 663.491C334.422 671.08 321.414 662.868 318.299 661C316.429 659.871 314.755 659.17 312.691 658.431C312.301 658.275 308.523 656.719 308.251 657.03C308.251 657.03 304.201 656.135 297.852 654.461C287.22 651.659 270.085 646.716 254.429 640.1C229.465 629.553 213.419 624.921 201.23 622.975C199.633 622.703 197.647 622.353 195.388 621.886C180.472 618.889 153.327 611.805 139.579 601.141C131.206 594.642 125.053 588.376 121.08 583.939C117.536 579.969 115.784 577.439 115.784 577.439C115.784 577.439 118.237 576.817 121.548 573.275C124.118 570.512 127.273 565.958 129.96 558.486C130.077 558.174 130.155 557.98 130.233 557.746C130.233 557.746 131.128 558.057 132.647 558.602C139.424 561.132 158.312 568.682 158.857 574.987C158.857 574.987 158.857 574.987 158.974 575.065C161.467 576.077 209.525 597.561 209.681 597.639C219.3 602.075 308.056 646.989 309.614 647.806C314.56 650.452 320.168 651.97 325.387 654.072C328.658 655.356 336.447 658.703 335.668 663.452L335.707 663.491Z" fill="#F5A784"/>
<path d="M102.581 410.047C102.581 410.047 100.946 405.143 101.491 400.161C101.88 396.658 101.53 388.913 100.089 386.773C100.089 386.773 99.7383 386.422 99.0762 386.072C98.9983 386.033 98.8815 385.955 98.7646 385.917C98.1805 385.605 97.3626 385.333 96.4279 385.255C96.35 385.255 96.2722 385.255 96.1943 385.255C95.5322 385.255 94.7533 385.255 93.9355 385.527C93.8576 385.527 93.8186 385.566 93.7407 385.605C93.1176 385.8 92.4555 386.072 91.7935 386.5C91.7935 386.5 92.5334 394.323 91.7935 396.892C91.7935 396.892 90.1188 392.338 88.6389 392.105L87.6653 392.494C87.6653 392.494 88.9115 397.592 89.2231 399.928C90.0409 405.571 94.4417 409.346 94.4417 409.346C94.4417 409.346 100.829 413.783 102.542 410.047H102.581Z" fill="#F5A784"/>
<path d="M93.9745 385.527L93.7798 385.605C94.4029 389.069 94.4029 392.572 94.5587 396.113C94.5587 396.191 94.6755 396.191 94.6755 396.113C95.2986 392.572 94.8313 388.991 93.9745 385.527V385.527Z" fill="#E0855C"/>
<path d="M96.428 385.294H96.1943C96.8175 388.758 96.8175 392.222 96.9732 395.802C96.9732 395.88 97.0901 395.88 97.0901 395.802C97.7132 392.299 97.2848 388.719 96.428 385.294Z" fill="#E0855C"/>
<path d="M99.0762 386.073C99.0762 386.073 98.8815 385.956 98.7646 385.917C99.3099 389.186 99.3099 392.494 99.4657 395.88C99.4657 395.958 99.5825 395.958 99.5825 395.88C100.245 392.611 99.8162 389.303 99.0762 386.073V386.073Z" fill="#E0855C"/>
<path d="M95.3376 528.985C95.3376 528.985 79.4479 533.889 83.6151 519.06C88.9506 499.99 96.6617 469.594 97.5185 457.645C98.4142 445.697 94.1303 406.427 94.1303 406.427L101.608 405.454C101.608 405.454 110.059 443.984 110.137 459.163C110.215 474.342 107.372 525.093 95.3376 528.946V528.985Z" fill="#F5A784"/>
<path d="M74.7357 520.072C72.7885 526.26 67.5698 529.063 63.7532 530.347C61.4944 529.218 58.3788 528.401 54.0948 528.401C53.8222 528.401 53.5885 528.401 53.3159 528.401L51.6023 527.545C51.6023 527.545 52.3423 524.937 53.6664 521.473C57.483 517.309 63.4806 512.872 63.4806 512.872L74.6968 520.111L74.7357 520.072Z" fill="#E0855C"/>
<path d="M60.4428 520.072C59.8586 521.707 59.1965 523.263 58.4566 524.664C56.704 528.05 54.6399 531.475 54.4452 535.251C54.1726 540.427 57.444 545.72 55.6915 550.585C54.8347 552.998 52.8874 554.827 51.8359 557.123C51.797 557.201 51.758 557.318 51.7191 557.396C50.2781 560.938 51.3296 564.907 52.0696 568.644C52.8095 572.38 53.0821 576.7 50.5507 579.58C49.0708 581.254 46.8509 582.11 44.67 582.499C39.724 583.277 33.9211 581.176 32.0518 576.505C29.4035 569.889 35.4789 561.677 31.7791 555.567C30.494 553.504 28.352 552.142 26.8721 550.235C20.3682 541.556 29.9098 532.799 29.4035 523.925C29.1698 520.344 27.2226 516.997 27.2226 513.417C27.2226 506.995 32.597 499.055 38.0104 495.903C43.3459 492.828 49.4602 492.945 54.7178 495.864C57.6777 497.46 59.7028 499.951 60.9491 502.792C63.1689 507.929 62.3121 514.468 60.3649 520.033L60.4428 520.072Z" fill="#3B2645"/>
<path d="M54.4842 535.25C54.2116 540.427 57.4829 545.72 55.7304 550.585C54.8736 552.998 52.9264 554.827 51.8748 557.123C50.5118 555.099 49.8108 552.569 50.1613 550.117C50.3949 548.483 51.057 546.887 51.3296 545.214C51.8359 541.789 50.5118 538.325 48.7592 535.367C47.6688 533.538 45.1763 530.385 45.9941 528.05C46.773 525.754 50.0055 527.778 50.3949 524.937C50.4728 524.197 50.356 523.458 50.356 522.679C50.356 521.473 50.6675 520.188 51.4854 519.293C52.5369 518.087 54.2505 517.659 55.8473 517.775C57.5998 517.931 59.2355 518.787 60.4817 519.994C59.8975 521.628 59.2355 523.185 58.4955 524.586C56.743 527.972 54.6789 531.397 54.4842 535.172V535.25Z" fill="#2C1C33"/>
<path d="M60.3649 501.896C56.3146 499.756 52.7316 498.199 50.2002 498.432C39.0619 499.522 33.4538 512.794 37.9325 518.904C39.5681 521.161 42.7617 523.302 46.8509 525.365C45.7994 526.026 44.5142 527.233 45.371 529.062C46.4225 531.242 51.2906 530.307 54.2505 528.284C63.831 530.541 69.2833 524.197 71.3474 520.617C73.6062 516.686 72.5157 508.396 60.3259 501.896H60.3649Z" fill="#F5A784"/>
<path d="M57.9504 507.851C57.9504 507.851 58.924 507.034 57.0157 506.139C55.3021 505.322 55.0684 506.217 55.0684 506.217C55.0684 506.217 54.64 506.917 56.1589 507.657C57.6777 508.396 57.9504 507.89 57.9504 507.89V507.851Z" fill="#3B2645"/>
<path d="M52.5368 517.814C52.5368 517.814 53.5104 516.997 51.6021 516.102C49.8885 515.285 49.6548 516.18 49.6548 516.18C49.6548 516.18 49.2264 516.88 50.7453 517.62C52.2642 518.359 52.5368 517.853 52.5368 517.853V517.814Z" fill="#3B2645"/>
<path d="M58.8071 515.518C59.0408 514.934 60.0534 513.923 59.625 513.339C59.2745 512.872 56.0031 512.093 55.4578 511.938C54.8737 511.782 54.3284 511.626 53.7832 511.51C53.7832 511.432 53.7832 511.393 53.7832 511.315C53.7832 511.159 53.7832 511.043 53.8611 510.926C56.042 511.548 58.2619 512.327 60.326 512.911C60.5207 512.95 60.5986 513.183 60.5207 513.339C60.0534 514.117 59.7808 514.935 59.3524 515.713C59.1966 515.985 58.7292 515.791 58.8461 515.518H58.8071Z" fill="#E0855C"/>
<path d="M51.7191 505.789C51.7581 504.816 52.4591 503.376 53.5495 503.298C53.7443 503.298 53.9 503.531 53.7832 503.687C53.5495 504.037 53.199 504.271 52.9264 504.621C52.6538 505.01 52.537 505.438 52.4201 505.867C52.3422 506.256 51.6802 506.217 51.6802 505.789H51.7191Z" fill="#3B2645"/>
<path d="M47.0067 516.686C46.1888 515.674 47.1625 513.767 48.2529 513.339C48.4866 513.261 48.7203 513.533 48.6813 513.767C48.5645 514.312 48.0971 514.701 47.8635 515.207C47.6687 515.635 47.6687 516.063 47.5519 516.53C47.513 516.764 47.1235 516.88 46.9677 516.686H47.0067Z" fill="#3B2645"/>
<path d="M60.949 518.398C61.7279 517.892 62.4678 517.581 62.9741 516.724C63.4025 516.063 63.4804 515.168 64.0646 514.662C64.1425 514.584 64.3372 514.584 64.3762 514.701C64.8046 515.596 64.1425 516.88 63.6362 517.658C63.091 518.476 62.1952 519.293 61.1437 519.254C60.6374 519.254 60.5206 518.631 60.91 518.359L60.949 518.398Z" fill="#E0855C"/>
<path d="M34.8168 520.772C37.3871 523.263 40.308 526.61 43.9299 527.311C51.3684 528.712 43.5405 517.386 42.9173 515.401C42.3332 513.533 42.2942 511.548 41.8269 509.641C41.5543 508.59 39.7628 506.489 39.9186 505.594C40.0743 504.659 42.0216 503.57 42.6058 502.714C44.0857 500.495 45.8772 499.717 47.8634 500.884C49.8496 502.052 51.2127 498.121 53.121 498.783C55.0682 499.405 50.0832 497.031 50.0832 497.031L40.7364 498.705L35.362 505.788L33.96 514.312L34.8946 520.85L34.8168 520.772Z" fill="#3B2645"/>
<path d="M78.9808 560.938C79.2923 577.673 76.9167 597.678 75.5147 606.162C74.2295 613.635 69.9844 627.84 66.051 640.178C62.0786 652.515 58.4567 662.985 58.4567 662.985L57.9893 664.658C57.4831 666.487 55.8474 667.733 53.939 667.694L33.4929 667.383C32.4024 667.383 32.0519 665.981 32.9476 665.398C37.0369 662.751 47.3184 661.078 48.4478 660.26C48.8372 659.988 49.4604 658.665 50.1224 656.913C50.1224 656.913 61.767 617.566 62.7796 605.617C63.8311 593.669 59.2745 564.246 61.4944 548.989C61.806 546.927 62.2344 545.136 62.7017 543.618C63.909 539.999 65.5058 537.897 67.1025 536.613C69.6729 534.55 72.0875 534.861 72.0875 534.861C73.9568 535.796 75.3199 537.936 76.3714 540.933C78.085 545.837 78.825 552.998 78.9418 560.86L78.9808 560.938Z" fill="#F5A784"/>
<path d="M130.933 539.61C127.974 546.382 122.677 558.174 114.732 569.85C114.499 570.2 114.265 570.59 113.992 570.94C113.486 571.718 112.941 572.536 112.396 573.314C112.084 573.82 111.733 574.287 111.422 574.754C110.604 575.922 109.786 577.05 108.89 578.218L79.0974 565.841C78.9027 565.102 79.0195 560.821 74.8135 554.866C72.4378 551.48 68.6991 547.666 62.7405 543.657C63.9478 540.038 65.5445 537.936 67.1413 536.652C67.336 536.807 67.5697 536.924 67.7644 537.08C69.8674 538.442 72.983 540.154 76.4102 540.972C80.3047 541.867 84.6276 541.594 88.3664 538.364C95.1428 532.487 86.6528 524.081 80.85 519.449C82.1741 517.931 83.5372 515.791 84.6276 513.611C88.6 515.557 95.2207 518.204 102.62 518.671C111.772 525.248 122.911 533.811 130.933 539.571V539.61Z" fill="#DDA43B"/>
<path d="M341.12 652.516C338.083 656.291 330.41 652.71 327.256 651.153C322.232 648.663 317.325 645.51 312.067 643.564C310.315 642.941 308.562 642.28 306.849 641.618C296.022 637.532 285.312 633.134 274.407 629.203C273.551 628.891 125.208 570.24 125.208 570.24C127.701 565.608 129.181 561.716 130.038 558.486C130.544 556.501 130.817 554.827 130.972 553.387C131.44 548.561 130.232 546.304 130.232 546.304C130.232 546.304 133.621 545.876 139.423 545.876C145.343 545.876 153.833 546.343 163.803 548.172C181.913 551.48 207.149 568.644 218.56 577.401C219.573 578.179 220.429 578.88 221.208 579.502C230.828 587.247 244.965 596.082 269.5 607.602C285.779 615.27 301.786 625.389 310.743 631.382C315.3 634.418 318.026 636.364 318.026 636.364C317.987 636.792 321.687 638.543 322.037 638.777C323.984 639.828 325.581 640.567 327.684 641.229C331.111 642.28 345.95 646.483 341.159 652.477L341.12 652.516Z" fill="#F5A784"/>
<path d="M218.521 577.44C215.405 584.796 212.29 591.49 209.252 597.484C208.434 599.118 207.616 600.753 206.799 602.271C195.193 597.406 145.694 578.18 129.999 572.147C131.985 568.8 134.088 564.752 136.074 560.004C137.788 555.879 139.385 551.208 140.67 545.993C146.512 546.071 154.456 546.577 163.764 548.251C181.874 551.559 207.11 568.722 218.521 577.479V577.44Z" fill="#012840"/>
<path d="M209.252 597.444C198.036 592.307 158.896 575.027 158.896 575.027C158.429 569.578 144.292 563.195 136.074 559.965C134.088 564.713 131.985 568.8 129.999 572.108C125.248 580.047 121.119 583.978 121.119 583.978C125.092 588.415 131.245 594.681 139.618 601.181C153.327 611.806 180.511 618.928 195.427 621.925C198.387 617.254 202.008 611.183 205.942 603.866C188.222 593.436 161.116 576.428 159.052 575.105C161.505 576.194 198.464 592.502 209.291 597.444H209.252Z" fill="#012840"/>
<path d="M302.565 644.148C292.984 639.244 283.326 634.535 273.823 629.436C264.321 624.338 209.408 597.561 209.252 597.444C208.434 599.079 207.617 600.714 206.799 602.231C206.526 602.776 206.215 603.321 205.942 603.866C210.304 606.435 214.12 608.614 216.808 610.054C230.672 617.41 300.384 643.33 302.565 644.148V644.148Z" fill="#E0855C"/>
<path d="M209.252 597.444C198.425 592.502 161.505 576.194 159.013 575.104C161.077 576.428 188.183 593.436 205.903 603.866C206.175 603.321 206.487 602.815 206.76 602.231C207.578 600.714 208.395 599.079 209.213 597.444H209.252Z" fill="#00111C"/>
<path d="M155.119 575.066C148.615 575.26 143.123 570.901 137.243 568.8C136.775 568.644 136.386 569.344 136.775 569.656C139.696 572.03 143.396 573.548 146.862 574.949C149.588 576.039 152.431 577.362 155.352 576.506C156.131 576.272 155.975 575.027 155.119 575.066V575.066Z" fill="#00111C"/>
<path d="M97.9081 550.663C97.8303 549.963 96.8956 549.846 96.7008 550.507C96.0388 552.92 95.7272 555.217 94.0915 557.24C92.6116 559.07 90.4307 560.315 88.094 560.549C87.0035 560.665 87.0035 562.339 88.094 562.261C93.741 561.911 98.3755 556.306 97.8692 550.624L97.9081 550.663Z" fill="#BE8D34"/>
<path d="M110.838 529.218C110.604 528.284 109.046 528.518 109.124 529.491C109.358 531.787 109.046 533.811 107.761 535.757C106.437 537.781 104.607 538.209 102.737 539.532C102.075 539.999 102.543 540.972 103.321 540.816C108.423 539.882 112.123 534.317 110.799 529.257L110.838 529.218Z" fill="#BE8D34"/>
<path d="M335.707 663.491C334.422 671.08 321.414 662.868 318.298 661C316.429 659.872 314.754 659.171 312.69 658.432C312.301 658.276 308.523 656.719 308.251 657.03C308.251 657.03 304.2 656.135 297.852 654.462C299.488 652.749 301.396 651.076 302.681 649.208C303.499 647.962 304.278 646.678 304.979 645.394C306.537 646.211 308.095 647.028 309.653 647.845C314.599 650.492 320.207 652.01 325.425 654.112C328.697 655.396 336.486 658.743 335.707 663.491Z" fill="#DDA43B"/>
<path d="M341.12 652.515C338.083 656.29 330.41 652.71 327.256 651.153C322.232 648.662 317.325 645.51 312.067 643.564C310.315 642.941 308.562 642.279 306.849 641.618C308.329 638.31 309.536 634.846 310.704 631.382C315.261 634.418 317.987 636.364 317.987 636.364C317.948 636.792 321.648 638.543 321.998 638.777C323.946 639.827 325.542 640.567 327.645 641.229C331.072 642.279 345.911 646.483 341.12 652.476V652.515Z" fill="#DDA43B"/>
<path d="M89.7684 570.278L79.0974 565.842C78.9027 565.102 79.0196 560.782 74.8135 554.866C74.8135 554.866 83.0698 559.225 89.7684 570.278Z" fill="#BE8D34"/>
<path d="M430.925 585.184C433.651 584.873 436.377 584.679 439.181 584.523C439.96 584.523 463.249 584.679 468.39 584.523C468.507 584.523 468.584 584.523 468.701 584.523C469.48 584.523 663.661 584.406 663.661 584.406C663.816 584.406 664.011 584.406 664.167 584.406H664.362C673.085 584.406 693.181 584.406 693.181 584.406C693.337 584.406 693.532 584.406 693.687 584.406C693.882 584.406 694.116 584.406 694.31 584.445C698.478 584.445 751.092 584.367 751.092 584.367C751.248 584.367 751.443 584.367 751.599 584.367H751.832C760.556 584.367 780.652 584.367 780.652 584.367C780.808 584.367 781.002 584.367 781.158 584.367C782.365 584.445 783.573 584.562 784.741 584.679C787.818 584.99 787.818 589.115 784.741 589.427C783.534 589.543 782.365 589.66 781.158 589.777C781.002 589.777 780.847 589.777 780.691 589.777C780.691 589.777 761.101 589.738 751.871 589.738H751.638C751.638 589.738 751.326 589.738 751.17 589.777C751.17 589.777 712.965 589.699 694.388 589.699C694.155 589.699 693.96 589.738 693.726 589.777C693.57 589.777 693.415 589.777 693.259 589.777C693.259 589.777 673.67 589.738 664.44 589.738H664.206C664.206 589.738 663.894 589.738 663.739 589.777C663.739 589.777 469.519 589.66 468.74 589.66C468.623 589.66 468.546 589.66 468.429 589.66C463.288 589.505 439.999 589.699 439.22 589.66C436.455 589.543 433.729 589.31 431.002 588.999C428.51 588.726 428.471 585.379 431.002 585.068L430.925 585.184Z" fill="#C6C6C6"/>
<path d="M568.089 415.496C566.804 422.852 564.623 430.091 561.313 436.746C557.574 444.258 551.537 452.625 543.086 455.233C532.376 458.58 520.693 426.199 519.213 422.034C519.096 421.762 518.94 421.529 518.707 421.334C517.11 420.205 510.84 415.457 514.033 411.02C517.499 406.194 525.133 402.341 527.781 414.367C528.871 419.271 532.104 423.903 534.791 428.028C536.972 431.375 539.153 434.995 541.801 437.953C544.761 426.744 545.929 415.224 549.902 404.17C550.914 401.407 552.044 398.605 554.03 396.425C556.016 394.246 558.937 392.728 561.858 393.195C565.051 393.701 567.505 396.464 568.518 399.539C569.53 402.614 569.335 405.922 569.024 409.152C568.79 411.293 568.518 413.394 568.128 415.535L568.089 415.496Z" fill="#F5A784"/>
<path d="M594.338 480.919C561.157 497.693 518.512 513.65 518.512 513.65C520.693 517.776 522.095 526.455 522.952 536.185C524.665 555.722 524.354 579.58 524.354 579.58C518.395 583.122 512.631 580.67 512.631 580.67C508.464 561.327 489.459 510.615 497.637 501.975C511.268 487.574 565.791 455.466 575.489 452.119C582.187 449.822 589.159 449.161 593.481 453.481C595.312 455.31 596.675 458.034 597.337 461.887C597.415 462.354 597.493 462.86 597.532 463.327C598.856 476.404 609.566 473.252 594.299 480.958L594.338 480.919Z" fill="#F5A784"/>
<path d="M763.905 586.274C767.761 579.814 748.289 567.71 742.447 563.974C741.901 563.662 741.512 563.39 741.239 563.195C739.059 561.677 732.827 555.022 731.659 553.777C725.856 547.549 720.17 542.023 714.718 537.119C693.415 517.971 675.851 508.357 673.28 505.983C663.427 496.759 654.275 488.976 646.019 482.476C619.068 461.343 602.4 448.149 602.4 448.149C598.856 446.826 594.923 451.807 592.157 451.496C575.177 449.745 573.113 465.39 589.976 480.063C609.605 497.11 661.713 524.392 661.713 524.392C673.864 535.523 689.871 546.109 702.567 553.699C707.24 556.501 711.446 558.914 714.874 560.821L714.679 560.899C714.679 560.899 730.374 569.306 735.904 572.653C736.722 573.159 737.267 573.548 737.579 573.781C741.668 577.284 759.66 593.28 763.905 586.236V586.274Z" fill="#F5A784"/>
<path d="M569.92 371.945C575.45 371.05 580.941 370.077 586.394 368.948C589.587 368.286 593.014 368.598 594.572 365.173C595.818 362.448 595.429 358.751 593.949 356.221C592.508 353.808 590.093 352.018 587.445 351.084C584.797 350.15 581.915 349.955 579.072 350.189C575.061 350.5 570.854 351.862 568.479 355.131C566.843 357.35 566.337 360.113 566.22 362.799C566.103 365.484 566.804 367.235 567.817 369.648C567.934 369.96 568.868 372.528 569.491 372.334C569.647 372.295 569.803 371.945 569.842 371.945H569.92Z" fill="#3B2645"/>
<path d="M568.985 367.547C568.985 367.547 566.532 365.134 564.584 367.975C562.637 370.816 566.882 375.525 569.764 375.448C569.764 375.448 569.414 368.637 568.985 367.547V367.547Z" fill="#E0855C"/>
<path d="M613.032 394.09C612.097 397.359 608.592 409.268 607.502 419.504C607.424 420.321 607.346 421.061 607.307 421.8C606.996 427.132 606.918 452.313 606.918 456.283C606.918 456.633 606.918 456.789 606.918 456.789C588.808 463.756 569.102 461.187 566.609 460.876C566.415 460.876 566.337 460.876 566.337 460.876C566.337 460.642 566.22 460.292 566.103 459.786C565.091 455.038 561.313 435.5 558.431 418.298C558.392 418.025 558.353 417.792 558.275 417.519C556.795 408.646 554.069 402.885 553.641 397.787C553.485 395.919 559.366 393.233 562.326 392.533C562.754 392.416 563.221 392.338 563.65 392.222C565.986 391.677 568.362 391.287 570.27 391.015C571.439 390.859 574.204 390.548 574.204 390.548V380.351C574.476 380.351 574.827 380.429 575.177 380.429C575.84 380.507 576.502 380.468 577.125 380.429C577.981 380.39 578.76 380.312 579.5 380.156C579.89 380.079 580.24 380.001 580.591 379.923C581.097 379.806 581.603 379.689 582.071 379.495C582.85 379.261 583.629 378.95 584.33 378.639C584.563 378.561 584.758 378.444 584.953 378.327C585.031 378.327 585.069 378.327 585.108 378.249L585.615 378.016C586.627 377.471 587.523 376.926 588.224 376.381C588.691 376.031 589.081 375.759 589.392 375.486C589.509 375.369 589.548 375.369 589.587 375.292C589.743 375.136 589.899 375.019 589.977 374.902C590.132 374.786 590.249 374.669 590.249 374.63V374.863C590.249 374.863 590.21 375.175 590.21 375.33C590.171 377.004 590.132 379.145 590.249 381.285C590.288 382.764 590.366 384.204 590.444 385.488C590.6 387.668 590.756 389.225 590.756 389.225C591.223 389.186 591.69 389.147 592.196 389.147C592.196 389.147 592.313 389.147 592.352 389.147C592.625 389.147 592.897 389.147 593.131 389.147C595.039 389.069 596.87 389.147 598.583 389.264C599.362 389.341 600.102 389.419 600.803 389.497C606.567 390.314 610.773 391.949 612.409 392.766C612.915 393 613.149 393.545 612.993 394.09H613.032Z" fill="#F5A784"/>
<path d="M590.288 374.63C588.886 386.5 577.125 386.851 574.204 385.605V380.312C584.018 381.324 590.288 374.669 590.288 374.669V374.63Z" fill="#E0855C"/>
<path d="M568.751 359.841C567.427 361.515 567.661 364.939 567.895 368.715C568.674 380.157 572.451 383.387 578.332 383.426C584.213 383.465 590.093 380.624 590.327 369.921C590.444 364.55 590.6 359.608 588.458 357.506C585.264 354.392 572.763 354.704 568.751 359.841V359.841Z" fill="#F5A784"/>
<path d="M589.353 368.481C589.353 368.481 590.678 363.577 593.754 365.796C596.831 368.014 593.637 375.565 589.276 375.448C589.276 375.448 588.146 370.233 589.353 368.481Z" fill="#F5A784"/>
<path d="M572.88 367.936C572.88 367.936 571.945 368.403 571.906 366.651C571.906 365.055 572.607 365.211 572.607 365.211C572.607 365.211 573.308 365.133 573.308 366.534C573.308 367.936 572.88 367.974 572.88 367.974V367.936Z" fill="#3B2645"/>
<path d="M582.889 366.963C582.889 366.963 581.954 367.43 581.915 365.679C581.915 364.083 582.616 364.239 582.616 364.239C582.616 364.239 583.317 364.161 583.317 365.562C583.317 366.963 582.889 367.002 582.889 367.002V366.963Z" fill="#3B2645"/>
<path d="M577.826 372.139C577.319 372.139 576.19 372.528 575.917 372.022C575.684 371.594 576.229 368.87 576.268 368.403C576.502 366.729 576.852 365.562 576.969 363.577C576.969 363.499 576.813 363.46 576.774 363.577C575.878 366.301 575.762 369.57 575.333 372.411C575.333 372.567 575.45 372.723 575.606 372.684C576.346 372.606 577.047 372.684 577.787 372.606C578.02 372.606 578.059 372.178 577.787 372.178L577.826 372.139Z" fill="#E0855C"/>
<path d="M573.425 362.526C572.685 362.254 571.361 362.254 570.894 363.071C570.816 363.227 570.971 363.421 571.127 363.382C571.478 363.344 571.789 363.11 572.101 363.071C572.49 362.993 572.841 363.071 573.23 363.149C573.581 363.227 573.736 362.682 573.425 362.565V362.526Z" fill="#3B2645"/>
<path d="M583.94 362.37C583.434 361.397 581.681 361.475 580.98 362.176C580.825 362.331 580.98 362.604 581.136 362.643C581.603 362.72 582.032 362.526 582.499 362.526C582.889 362.526 583.239 362.682 583.629 362.759C583.823 362.798 584.018 362.565 583.94 362.37Z" fill="#3B2645"/>
<path d="M580.708 374.319C579.539 374.747 578.877 375.526 577.553 375.604C576.891 375.642 576.268 375.604 575.645 375.331C575.294 375.175 575.333 375.136 574.944 375.098C574.827 375.098 574.749 375.214 574.749 375.331C574.944 376.46 576.696 376.46 577.553 376.421C578.916 376.343 580.201 375.837 580.941 374.631C581.058 374.475 580.863 374.241 580.708 374.319V374.319Z" fill="#E0855C"/>
<path d="M558.431 418.259C558.431 425.226 560.573 431.998 562.014 438.77C562.715 442.117 563.299 445.464 563.727 448.889C564.039 451.458 564.156 454.027 564.312 456.595C564.312 457.101 564.351 457.607 564.545 458.074C565.519 460.76 571.166 461.149 573.542 461.304C578.877 461.577 584.446 461.538 589.782 460.837C596.597 459.903 603.101 457.802 608.514 453.637C608.242 452.937 608.008 452.275 607.813 451.575C606.684 447.683 606.957 444.024 606.995 439.743C606.995 437.992 606.995 436.279 607.073 434.567C607.112 428.962 607.19 423.942 607.346 421.918C604.581 418.182 600.647 411.449 599.907 402.225C599.596 398.41 599.83 394.168 600.92 389.576C600.219 389.459 599.479 389.381 598.7 389.342C596.987 389.187 595.156 389.148 593.248 389.225C592.196 395.414 589.198 406.155 579.111 404.677C570.582 403.392 570.037 395.491 570.387 391.055C568.479 391.327 566.103 391.716 563.766 392.261C562.17 398.527 558.509 405.961 558.509 418.337L558.431 418.259Z" fill="#012840"/>
<path d="M493.431 582.188C493.392 586.625 499.896 587.287 503.09 587.52C508.425 587.91 513.332 586.625 518.551 586.353C519.836 586.275 521.199 586.236 522.407 585.769C523.614 585.302 524.704 584.368 525.016 583.122C525.016 583.006 525.055 582.967 525.055 582.889C525.172 582.305 525.094 581.721 525.055 581.099C525.055 580.865 525.055 580.709 524.977 580.515C524.86 578.997 525.444 577.596 525.366 576.195C525.327 575.377 524.938 573.976 524.237 575.339C523.146 577.479 519.252 576.623 519.252 576.623C520.226 573.509 516.058 571.252 512.787 570.98C511.385 570.863 510.567 571.914 509.516 573.198C509.204 573.509 508.931 573.86 508.581 574.249C508.542 574.249 508.503 574.327 508.464 574.366C508.464 574.366 508.386 574.404 508.347 574.443L508.23 574.56C507.958 574.833 507.685 575.066 507.374 575.3C507.296 575.377 507.218 575.416 507.14 575.494C507.023 575.572 506.945 575.611 506.906 575.611C506.712 575.728 506.517 575.883 506.322 575.961C506.011 576.117 505.66 576.273 505.31 576.428C505.154 576.506 505.076 576.506 504.998 576.545C504.648 576.662 504.297 576.74 503.869 576.818C503.168 576.934 502.35 577.051 501.415 577.012C501.104 577.012 500.792 577.012 500.519 577.012C496.975 577.129 495.184 578.413 494.288 579.698C494.132 579.931 494.015 580.165 493.899 580.359C493.665 580.748 493.548 581.138 493.509 581.41C493.509 581.527 493.47 581.605 493.47 581.682C493.47 581.76 493.47 581.838 493.47 581.916C493.47 582.072 493.47 582.15 493.47 582.15L493.431 582.188Z" fill="#012840"/>
<path d="M507.53 579.619C506.556 578.841 506.05 577.44 505.232 576.467C505.699 576.272 506.011 576.117 506.322 575.961C507.179 576.856 508.192 578.063 508.192 579.269C508.192 579.619 507.802 579.853 507.53 579.619Z" fill="#E8CEE5"/>
<path d="M493.431 582.188C493.392 586.625 499.896 587.287 503.09 587.52C508.425 587.909 513.332 586.625 518.551 586.353C519.836 586.275 521.199 586.236 522.407 585.769C523.614 585.302 524.704 584.368 525.016 583.122C520.576 584.874 515.708 584.757 510.918 585.146C508.308 585.341 505.232 585.73 502.428 585.535C503.557 582.461 502.622 579.269 500.558 577.051C497.014 577.168 495.223 578.452 494.327 579.736C494.171 579.97 494.054 580.203 493.938 580.398C493.704 580.787 493.587 581.176 493.548 581.449C493.548 581.565 493.548 581.643 493.509 581.721C493.509 581.799 493.509 581.877 493.509 581.955C493.509 582.11 493.509 582.188 493.509 582.188H493.431Z" fill="#E8CEE5"/>
<path d="M507.14 575.494C507.413 575.61 507.685 575.805 507.958 576C508.893 576.739 509.594 577.712 510.139 578.763C510.45 579.386 511.541 578.919 511.268 578.296C510.723 577.011 509.944 575.883 508.815 575.027C508.62 574.871 508.425 574.715 508.231 574.56C507.997 574.832 507.685 575.066 507.374 575.299C507.296 575.377 507.218 575.416 507.14 575.494V575.494Z" fill="#E8CEE5"/>
<path d="M579.033 442.661C579.267 443.012 583.512 452.041 589.782 460.759C596.597 459.825 603.101 457.723 608.514 453.559C608.242 452.858 608.008 452.197 607.813 451.496C606.684 447.604 606.957 443.946 606.996 439.665C606.996 437.913 606.996 436.201 607.073 434.488L602.478 444.024L579.072 442.661H579.033Z" fill="#012840"/>
<path d="M618.796 415.496C617.511 422.852 615.33 430.091 612.019 436.746C608.281 444.258 602.244 452.625 593.793 455.233C583.083 458.58 571.4 426.199 569.92 422.034C569.803 421.762 569.647 421.529 569.414 421.334C567.778 420.205 561.547 415.457 564.74 411.02C568.206 406.194 575.839 402.341 578.488 414.367C579.578 419.271 582.811 423.903 585.498 428.028C587.679 431.375 589.86 434.995 592.508 437.953C595.468 426.744 596.636 415.224 600.609 404.17C601.621 401.407 602.751 398.605 604.737 396.425C606.723 394.246 609.644 392.728 612.565 393.195C615.758 393.701 618.212 396.464 619.224 399.539C620.237 402.614 620.042 405.922 619.731 409.152C619.497 411.293 619.224 413.394 618.835 415.535L618.796 415.496Z" fill="#F5A784"/>
<path d="M525.405 480.959C528.716 490.26 533.389 496.799 537.362 501.08C541.723 505.828 545.267 507.813 545.267 507.813C548.695 503.96 591.846 484.695 591.846 484.695L636.827 515.831C644.967 512.6 650.38 507.891 653.885 503.649C654.353 503.104 654.742 502.559 655.132 502.053C655.716 501.236 656.261 500.457 656.728 499.718C657.196 499.017 657.546 498.356 657.897 497.733C659.221 495.281 659.727 493.685 659.727 493.685C637.49 468.115 608.475 453.481 608.475 453.481C608.281 453.598 608.047 453.676 607.852 453.793C606.957 454.221 606.1 454.61 605.204 454.96C603.685 455.583 602.166 456.128 600.647 456.595C599.791 456.829 598.934 457.062 598.116 457.296C580.474 461.693 564.312 456.556 564.312 456.556L525.366 480.959H525.405Z" fill="#DDA43B"/>
<path d="M537.362 501.079C541.723 505.789 545.267 507.813 545.267 507.813C548.695 503.959 591.846 484.694 591.846 484.694C591.846 484.694 584.29 480.569 572.256 486.952C563.182 491.739 545.579 498.16 537.362 501.041V501.079Z" fill="#BE8D34"/>
<path d="M605.243 454.999C613.344 462.938 622.028 470.411 630.908 477.3C636.127 481.347 641.618 485.083 646.603 489.404C650.264 492.595 653.457 496.176 656.728 499.756C657.196 499.056 657.546 498.394 657.897 497.771C651.393 489.52 642.358 483.137 634.14 476.871C624.832 469.788 616.459 461.654 607.852 453.831C606.957 454.259 606.1 454.648 605.204 454.999H605.243Z" fill="#DCD3DB"/>
<path d="M598.155 457.335C600.18 459.67 602.361 461.888 604.737 463.951C610.189 468.621 616.07 472.824 621.756 477.183C628.104 482.048 634.53 486.836 640.761 491.856C645.395 495.592 649.602 499.679 653.924 503.727C654.392 503.182 654.781 502.637 655.171 502.131C651.588 498.161 647.382 494.658 643.409 491.311C637.957 486.758 632.271 482.438 626.624 478.118C620.237 473.214 613.655 468.427 607.424 463.289C604.97 461.265 602.789 459.047 600.686 456.673C599.83 456.906 598.973 457.14 598.155 457.373V457.335Z" fill="#DCD3DB"/>
<path d="M653.613 727.708C649.446 727.241 645.278 726.93 641.033 726.735C639.865 726.696 604.347 726.969 596.48 726.735C596.324 726.735 596.169 726.735 596.013 726.735C594.844 726.696 298.784 726.541 298.784 726.541C298.511 726.541 298.277 726.541 298.005 726.58C297.888 726.58 297.771 726.58 297.693 726.58C284.413 726.58 253.763 726.502 253.763 726.502C253.49 726.502 253.257 726.502 252.984 726.541C252.673 726.541 252.361 726.58 252.049 726.619C245.701 726.619 165.474 726.502 165.474 726.502C165.202 726.502 164.968 726.502 164.695 726.541C164.579 726.541 164.462 726.541 164.384 726.541C151.104 726.541 120.454 726.463 120.454 726.463C120.181 726.463 119.948 726.463 119.675 726.502C117.844 726.619 116.014 726.774 114.223 726.969C109.549 727.436 109.549 733.741 114.223 734.208C116.053 734.403 117.844 734.558 119.675 734.714C119.909 734.714 120.142 734.714 120.376 734.753C120.376 734.753 150.208 734.675 164.345 734.675C164.462 734.675 164.579 734.675 164.695 734.675C164.929 734.675 165.163 734.675 165.397 734.714C165.397 734.714 223.658 734.597 251.972 734.558C252.283 734.558 252.634 734.636 252.945 734.636C253.179 734.636 253.413 734.636 253.646 734.675C253.646 734.675 283.478 734.597 297.615 734.597C297.732 734.597 297.849 734.597 297.966 734.597C298.199 734.597 298.433 734.597 298.667 734.636C298.667 734.636 594.767 734.48 595.974 734.441C596.13 734.441 596.285 734.441 596.441 734.441C604.269 734.247 639.787 734.519 640.994 734.441C645.201 734.247 649.368 733.897 653.535 733.468C657.351 733.04 657.39 727.942 653.535 727.514L653.613 727.708Z" fill="#C6C6C6"/>
<path d="M381.269 597.328C436.727 609.004 505.816 615.815 505.816 615.815C504.18 622.743 505.543 636.053 508.114 650.726C513.215 680.188 523.069 715.177 523.069 715.177C533.233 718.057 540.75 712.18 540.75 712.18C539.309 682.056 547.37 599.897 531.948 590.362C506.244 574.482 413.282 548.523 397.665 547.433C386.877 546.694 376.362 548.445 371.689 556.501C369.742 559.887 368.768 564.441 369.313 570.396C369.391 571.135 369.469 571.875 369.586 572.575C372.779 592.346 355.76 591.879 381.269 597.289V597.328Z" fill="#F5A784"/>
<path d="M394.355 409.735C393.887 410.98 393.031 411.953 392.524 413.121C391.901 414.561 391.979 416.312 391.395 417.791C391.2 418.181 389.876 421.138 389.37 419.387C389.058 419.387 388.708 419.348 388.396 419.309C380.101 418.764 371.806 418.181 363.588 417.285C361.251 417.013 358.915 416.935 356.578 416.585C354.553 416.273 353.696 415.845 352.684 414.405C352.489 414.172 352.372 413.938 352.216 413.627C350.191 410.124 349.412 405.999 349.451 402.029C349.451 400.433 349.607 398.838 350.074 397.32C350.542 395.685 351.437 394.206 352.45 392.805C355.527 388.68 359.966 385.722 364.795 383.892C364.523 382.569 362.303 381.752 361.485 380.662C360.511 379.3 359.927 377.665 360.044 375.992C360.161 374.785 360.589 373.618 361.174 372.567C362.887 369.609 366.042 367.429 369.469 367.118C372.507 366.846 375.661 368.052 377.686 370.309C377.959 370.582 378.193 370.893 378.426 371.244C380.374 374.085 380.529 378.093 378.699 380.973C378.193 381.791 377.531 382.842 378.115 383.62C378.387 383.931 378.777 384.087 379.166 384.243C382.36 385.371 385.514 386.617 388.163 388.68C391.707 391.365 394.199 395.374 395.095 399.694C395.796 403.041 395.484 406.544 394.316 409.774L394.355 409.735Z" fill="#3B2645"/>
<path d="M390.149 412.576C390.149 412.576 393.537 408.529 396.886 412.576C400.275 416.624 394.511 424.369 390.149 424.719C390.149 424.719 389.643 414.328 390.149 412.576V412.576Z" fill="#E0855C"/>
<path d="M413.905 486.718C413.827 487.925 413.75 489.131 413.633 490.338C411.919 514.546 409.427 541.128 408.531 550.352C408.492 551.013 408.219 553.738 408.219 553.738C408.219 553.738 402.728 555.178 394.121 556.268C382.048 557.785 363.9 558.603 346.102 553.738C346.102 553.738 346.102 553.465 346.024 552.959C345.401 546.927 341.545 508.708 340.221 500.807C340.026 499.679 339.793 498.511 339.559 497.304C339.131 495.281 338.702 493.257 338.196 491.272C334.73 477.572 329.122 463.717 327.33 459.552C327.019 458.774 327.33 457.918 328.031 457.49C330.524 455.933 337.222 452.547 346.53 450.445C347.153 450.328 347.815 450.173 348.477 450.056C350.347 449.745 352.294 449.433 354.319 449.239C355.488 449.122 356.695 449.005 357.902 448.966C357.98 448.966 358.097 448.966 358.175 448.966C358.876 448.888 359.616 448.85 360.356 448.85C360.356 448.85 360.356 446.437 360.239 443.089C360.161 441.143 360.083 438.964 359.927 436.707C359.772 433.437 359.421 430.168 359.071 427.638C359.071 427.366 358.993 427.171 358.954 426.938C358.954 426.665 359.109 426.782 359.343 426.938C359.538 427.094 359.733 427.249 360.044 427.444C360.122 427.483 360.2 427.561 360.278 427.638C360.901 428.028 361.524 428.456 362.264 428.884C363.393 429.584 364.795 430.324 366.47 430.985C366.743 431.102 367.015 431.18 367.249 431.297C367.327 431.336 367.444 431.375 367.522 431.414C367.833 431.569 368.184 431.647 368.534 431.764C369.664 432.114 370.832 432.464 372.078 432.737C372.818 432.893 373.597 433.009 374.376 433.126C374.921 433.204 375.466 433.243 376.051 433.321C377.18 433.437 378.387 433.437 379.595 433.36C380.646 433.321 381.62 433.243 382.593 433.048C383.139 433.009 383.645 432.893 384.151 432.776L385.203 443.751L385.592 448.266H386.527C386.761 448.266 386.994 448.266 387.306 448.266C388.786 448.266 391.122 448.344 393.849 448.499C396.224 448.616 398.872 448.811 401.56 449.122C402.339 449.239 403.156 449.317 403.935 449.433C408.531 450.056 415.19 449.745 415.268 452.625C415.424 460.448 414.801 473.058 413.905 486.718V486.718Z" fill="#F5A784"/>
<path d="M358.876 426.549C362.809 444.335 380.724 443.128 384.93 440.754L384.19 432.698C369.43 435.695 358.876 426.51 358.876 426.51V426.549Z" fill="#E0855C"/>
<path d="M389.37 400.9C391.629 403.235 391.785 408.45 391.979 414.21C392.563 431.685 387.306 437.173 378.348 438.107C369.391 439.08 360.044 435.616 358.136 419.426C357.162 411.33 356.15 403.819 359.11 400.316C363.51 395.101 382.477 393.739 389.37 400.861V400.9Z" fill="#F5A784"/>
<path d="M359.421 417.091C359.421 417.091 356.695 409.852 352.372 413.705C348.049 417.558 354.008 428.494 360.628 427.677C360.628 427.677 361.524 419.582 359.421 417.13V417.091Z" fill="#F5A784"/>
<path d="M354.358 416.974C355.332 417.13 356.305 418.025 356.967 418.686C357.707 419.348 358.525 420.204 358.876 421.138C358.993 421.45 358.564 421.605 358.369 421.411C357.824 420.905 357.357 420.282 356.851 419.698C356.461 420.088 356.111 420.516 355.565 420.71C355.176 420.866 354.864 420.36 355.059 420.049C355.293 419.621 355.682 419.309 356.111 419.037C355.41 418.492 354.592 418.103 354.047 417.48C353.813 417.246 354.047 416.935 354.358 416.974Z" fill="#E0855C"/>
<path d="M377.453 420.944C378.232 420.827 379.984 421.294 380.335 420.477C380.646 419.776 379.4 415.729 379.244 415.028C378.621 412.498 377.959 410.825 377.492 407.789C377.492 407.672 377.686 407.594 377.764 407.711C379.556 411.72 380.218 416.663 381.269 420.905C381.347 421.138 381.152 421.372 380.919 421.372C379.789 421.372 378.699 421.605 377.57 421.605C377.18 421.605 377.102 420.983 377.492 420.944H377.453Z" fill="#E0855C"/>
<path d="M382.632 405.648C383.723 405.103 385.748 404.948 386.527 406.076C386.683 406.271 386.488 406.582 386.254 406.582C385.709 406.582 385.242 406.31 384.696 406.232C384.112 406.193 383.567 406.31 383.022 406.504C382.515 406.66 382.165 405.882 382.671 405.648H382.632Z" fill="#3B2645"/>
<path d="M366.704 406.971C367.327 405.454 370.014 405.298 371.144 406.232C371.416 406.465 371.221 406.855 370.949 406.933C370.287 407.127 369.586 406.894 368.885 406.933C368.262 406.971 367.794 407.244 367.21 407.438C366.937 407.555 366.548 407.205 366.665 406.894L366.704 406.971Z" fill="#3B2645"/>
<path d="M372.234 411.798C371.066 411.292 369.703 411.292 368.456 411.37C367.405 411.448 366.003 411.603 365.263 412.459C365.185 412.537 365.185 412.693 365.341 412.732C366.353 412.888 367.405 412.421 368.456 412.343C369.664 412.265 370.832 412.498 372.039 412.576C372.429 412.576 372.623 411.953 372.234 411.798Z" fill="#3B2645"/>
<path d="M385.514 410.708C384.307 410.708 383.1 411.058 382.204 411.837C381.659 412.304 382.36 413.004 382.905 412.732C383.84 412.304 384.658 411.953 385.709 412.031C386.527 412.07 387.267 412.615 388.085 412.537C388.435 412.537 388.63 412.187 388.474 411.876C388.007 410.903 386.527 410.708 385.514 410.708Z" fill="#3B2645"/>
<path d="M382.048 425.809C380.335 426.159 378.816 426.704 377.024 426.432C375.389 426.159 374.22 425.186 372.74 424.641C372.429 424.525 372.234 424.914 372.351 425.147C373.948 428.222 380.023 428.65 382.477 426.626C382.866 426.315 382.438 425.77 382.009 425.848L382.048 425.809Z" fill="#E0855C"/>
<path d="M603.958 446.981C592.586 445.463 562.053 447.292 561.391 447.798C553.251 449.511 507.452 459.007 498.494 459.318C491.017 459.591 460.679 456.322 439.103 453.948C434.702 453.442 430.691 453.013 427.264 452.585C425.355 452.391 406.389 449.472 406.389 449.472C394.082 448.11 399.067 454.882 397.977 463.833C397.743 465.585 397.899 467.492 398.483 469.554C399.496 473.174 402.222 476.015 405.571 477.65C409.505 479.479 422.084 480.997 437.039 482.086C438.869 482.242 440.7 482.359 442.608 482.476C466.676 484.032 494.678 484.46 502.934 483.254C523.224 480.257 555.082 467.647 566.687 462.86C566.804 462.86 566.921 462.86 567.038 462.782C576.774 459.474 586.004 461.42 595.974 460.291C596.402 460.253 596.87 460.136 597.025 459.747C597.103 459.552 597.064 459.318 597.025 459.124C596.169 456.711 592.43 457.878 590.872 456.477C592.196 455.31 594.494 455.115 596.13 454.298C599.128 452.819 601.855 450.717 604.62 448.888C604.97 448.654 605.36 448.343 605.36 447.915C605.36 447.292 604.581 447.02 603.958 446.942V446.981Z" fill="#F5A784"/>
<path d="M153.518 446.981C164.89 445.463 195.423 447.292 196.085 447.798C204.225 449.511 250.024 459.007 258.982 459.318C266.459 459.591 296.797 456.322 318.373 453.948C322.774 453.442 326.785 453.013 330.212 452.585C332.121 452.391 351.087 449.472 351.087 449.472C363.394 448.11 358.409 454.882 359.499 463.833C359.733 465.585 359.577 467.492 358.993 469.554C357.98 473.174 355.254 476.015 351.905 477.65C347.971 479.479 335.392 480.997 320.437 482.086C318.607 482.242 316.776 482.359 314.868 482.476C290.8 484.032 262.798 484.46 254.542 483.254C234.251 480.257 202.394 467.647 190.789 462.86C190.672 462.86 190.555 462.86 190.438 462.782C180.702 459.474 171.472 461.42 161.502 460.291C161.074 460.253 160.606 460.136 160.45 459.747C160.373 459.552 160.412 459.318 160.45 459.124C161.307 456.711 165.046 457.878 166.604 456.477C165.28 455.31 162.982 455.115 161.346 454.298C158.347 452.819 155.621 450.717 152.856 448.888C152.506 448.654 152.116 448.343 152.116 447.915C152.116 447.292 152.895 447.02 153.518 446.942V446.981Z" fill="#F5A784"/>
<path d="M395.484 551.831C395.679 552.609 377.414 640.801 327.214 666.099C294.5 682.601 258.359 693.381 222.373 700.075C220.893 700.348 219.413 700.62 217.934 700.854C217.778 704.863 218.245 709.961 220.114 713.503C221.594 716.344 223.308 719.302 226.501 720.469C227.086 720.664 227.709 720.858 228.176 721.248C229.5 722.337 228.955 724.634 227.592 725.607C226.229 726.619 224.398 726.696 222.724 726.735C216.999 726.852 210.495 727.358 207.769 721.637C206.055 718.095 204.731 714.32 203.524 710.584C201.577 704.707 195.774 688.828 203.719 686.726C230.318 679.721 297.615 644.343 308.909 637.921C319.113 632.122 329.433 571.485 346.141 552.921C362.809 534.356 392.68 538.715 395.601 551.792L395.484 551.831Z" fill="#F5A784"/>
<path d="M521.511 709.65C521.706 711.479 521.861 713.308 521.978 715.098C522.212 719.457 518.863 724.673 523.302 727.864C525.678 729.577 528.91 729.304 531.675 729.499C537.712 729.849 543.749 729.615 549.785 729.421C553.757 729.304 557.691 729.11 561.663 728.915C564.935 728.759 570.114 729.304 572.879 727.592C573.23 727.358 573.58 727.086 573.697 726.696C573.775 726.346 573.658 725.957 573.464 725.646C572.763 724.439 571.322 723.816 569.998 723.349C563.961 721.248 557.496 720.508 551.499 718.29C546.903 716.577 542.346 713.736 539.737 709.455C537.868 706.419 537.712 702.994 534.09 701.36C528.326 698.791 520.732 702.878 521.55 709.65H521.511Z" fill="#F5A784"/>
<path d="M413.672 490.338C411.958 514.546 409.466 541.128 408.57 550.352C404.87 551.986 399.885 554.088 394.121 556.306C382.048 557.824 363.9 558.642 346.102 553.777C346.102 553.777 346.102 553.504 346.024 552.998C345.401 546.966 341.545 508.747 340.221 500.846C340.026 499.717 339.793 498.55 339.559 497.343C339.131 495.319 338.702 493.296 338.196 491.311C342.052 485.901 347.815 473.758 346.53 450.484C347.153 450.367 347.815 450.212 348.478 450.095C350.347 449.784 352.294 449.472 354.319 449.278C355.371 458.385 359.655 482.709 374.61 482.32C391.707 481.931 393.732 460.759 393.888 448.538C396.263 448.655 398.912 448.849 401.599 449.161C401.599 458.112 402.65 482.904 413.672 490.377V490.338Z" fill="#DDA43B"/>
<path d="M540.828 685.247C530.663 691.747 515.591 686.337 515.591 686.337C502.622 662.362 501.61 618.734 501.61 618.734C501.61 618.734 427.303 613.207 397.86 613.207C391.473 613.207 386.644 614.491 382.671 616.788C368.223 625.078 364.757 646.25 339.326 666.099C306.884 691.396 246.48 694.938 246.48 694.938C237.718 688.439 238.224 673.299 238.224 673.299C238.224 673.299 247.376 662.129 264.512 652.399C267.628 650.609 271.055 648.857 274.716 647.262C297.693 637.182 308.754 628.658 309.416 628.113C320.827 589.505 345.713 550.235 345.713 550.235C381.659 558.642 408.843 547.277 408.843 547.277C424.537 547.277 523.38 579.152 536.349 589.505C549.357 599.897 550.953 678.709 540.828 685.247V685.247Z" fill="#012840"/>
<path d="M501.61 618.733C501.61 618.733 427.303 613.207 397.86 613.207C391.473 613.207 386.644 614.491 382.671 616.787C382.788 616.009 385.982 599.507 415.307 600.363C445.373 601.219 501.61 618.733 501.61 618.733Z" fill="#00111C"/>
<path d="M290.839 650.959C281.258 652.905 271.639 652.905 264.512 652.399C267.628 650.609 271.055 648.857 274.716 647.262C297.693 637.182 308.754 628.658 309.416 628.113C309.416 628.113 309.883 647.028 290.839 650.92V650.959Z" fill="#00111C"/>
<path d="M614.979 675.049V686.414C614.979 687.582 614.706 688.71 614.161 689.722C613.499 690.968 612.798 692.213 612.214 693.225C610.267 696.611 611.123 701.554 613.421 704.667C614.356 705.913 614.979 707.353 614.979 708.909V726.268C614.979 728.369 613.265 730.043 611.201 730.043H585.108C583.005 730.043 581.33 728.33 581.33 726.268V708.987C581.33 707.431 581.953 705.99 582.888 704.706C585.225 701.593 586.082 696.65 584.134 693.264C583.55 692.213 582.849 690.968 582.148 689.683C581.603 688.671 581.33 687.543 581.33 686.375V675.088C581.33 673.57 581.447 672.169 581.681 670.846C583.628 659.559 592.936 655.084 592.936 655.084V650.219H603.412V655.084C603.412 655.084 612.642 659.559 614.628 670.729C614.862 672.092 615.018 673.57 615.018 675.127L614.979 675.049Z" fill="#012840" fill-opacity="0.7"/>
<path d="M600.18 652.982H596.052C593.403 652.982 591.261 650.842 591.261 648.195C591.261 645.549 593.403 643.408 596.052 643.408H600.18C602.828 643.408 604.97 645.549 604.97 648.195C604.97 650.842 602.828 652.982 600.18 652.982Z" fill="#DDA43B"/>
<path d="M614.979 675.05V684.157H581.292V675.05C581.292 673.532 581.408 672.131 581.642 670.807C587.678 668.005 600.53 663.841 614.59 670.652C614.823 672.014 614.979 673.493 614.979 675.05Z" fill="#DDA43B"/>
<path d="M614.979 709.805V711.557C610.345 711.518 605.71 711.362 601.115 711.44C596.792 711.518 583.589 712.024 581.292 712.102V710.778C583.395 710.662 585.537 710.623 587.601 710.506C591.924 710.311 610.15 709.766 614.979 709.728V709.805Z" fill="#DDA43B"/>
<path d="M614.979 715.487V717.044C609.838 717.161 604.659 717.161 599.557 717.161C593.481 717.161 587.367 717.083 581.292 716.849V715.799C587.367 715.799 609.838 715.565 614.979 715.487V715.487Z" fill="#DDA43B"/>
<path d="M366.665 375.641C365.652 380.662 371.066 383.503 371.845 383.892C367.717 383.114 364.796 383.892 364.796 383.892C364.523 382.569 362.303 381.752 361.485 380.662C360.512 379.3 359.927 377.665 360.044 375.992C360.161 374.785 360.59 373.618 361.174 372.567C362.887 369.609 366.042 367.429 369.469 367.118C372.507 366.846 375.661 368.052 377.686 370.309C372.195 369.181 367.639 370.699 366.665 375.641V375.641Z" fill="#291B30"/>
<defs>
<clipPath id="clip0_715_187">
<rect width="250" height="369" fill="white" transform="translate(262 136)"/>
</clipPath>
</defs>
</svg>
